#N canvas 219 84 1010 614 10;
#X declare -path AutoPreset;
#X declare -path effects -path rhythmic -path moonlib;
#X text 67 28 mode1=nappe mode2=arpege mode3=rythmique(découpé);
#X obj 24 1 r PP_POS;
#X obj 480 118 r PROXIMITY;
#X obj 63 401 r PP_PRESS;
#X obj 299 88 r LEDRVB;
#X obj 299 109 unpack f f f;
#X obj 76 543 r VOLPOT;
#X obj 665 263 r FXPOT;
#X obj 34 182 line~;
#X obj 34 203 mtof~;
#X obj 34 224 ssaw~;
#X obj 35 584 mull~ 0 20;
#X obj 76 564 pow 2;
#X obj 35 605 throw~ master;
#X obj 35 444 mull~ 0 20;
#X obj 63 424 pow 2;
#X obj 34 112 + 25;
#X obj 34 133 gammeRound /CHORD 5;
#X obj 480 139 * 4.5;
#X obj 480 160 i;
#X obj 480 181 change;
#X obj 480 202 sel 0 1 2 3 4, f 23;
#X msg 480 223 2;
#X msg 508 223 3;
#X msg 537 223 4;
#X msg 567 222 8;
#X msg 596 223 16;
#X obj 480 249 f;
#X obj 427 252 r CLOCK;
#X obj 427 313 ndmetro 8 4;
#X msg 480 270 nd 8 \$1;
#X obj 427 334 mod 2;
#X obj 427 355 == 0;
#X obj 34 345 bob~, f 21;
#X obj 34 366 *~;
#X obj 427 427 sel 1 0;
#X msg 427 448 start;
#X msg 468 448 stop;
#X obj 427 469 t a;
#X obj 115 373 ear~ 10 80, f 11;
#X obj 157 320 sig~ 2;
#X obj 232 102 * 80;
#X obj 232 144 mtof;
#X msg 232 165 \$1 20;
#X obj 232 186 line~;
#X text 409 44 bleu=nappe vert=arpege rythmique=rythmique(découpé)
;
#X obj 368 131 > 0.5;
#X obj 427 376 ||;
#X obj 454 375 t b f;
#X obj 368 152 change;
#X obj 352 232 bng 15 250 50 0 empty empty empty 17 7 0 10 -262144
-1 -1;
#X obj 408 499 bng 15 250 50 0 empty empty empty 17 7 0 10 -262144
-1 -1;
#X obj 427 397 change;
#X obj 35 46 r COLORHUE;
#X obj 35 67 / 360;
#X obj 34 91 * 60;
#X obj 232 79 r PP_POS;
#X msg 34 159 \$1 20;
#X obj 225 555 throw~ reverb;
#X obj 225 500 lop~ 20;
#X obj 225 521 mull~ 0 20;
#X obj 290 396 r PROXIMITY;
#X obj 290 417 * 130;
#X obj 290 438 mtof;
#X obj 337 435 pow 2;
#N canvas 0 79 551 363 add_voices 0;
#X obj 63 194 line~;
#X obj 63 215 mtof~;
#X obj 63 236 ssaw~;
#X msg 63 171 \$1 20;
#X obj 204 197 line~;
#X obj 204 218 mtof~;
#X obj 204 239 ssaw~;
#X msg 204 174 \$1 20;
#X obj 203 130 + 7;
#X obj 62 127 + 4;
#X obj 347 205 line~;
#X obj 347 226 mtof~;
#X obj 347 247 ssaw~;
#X msg 347 182 \$1 20;
#X obj 346 138 + 9;
#X obj 274 2 inlet;
#X obj 274 30 * 2;
#X obj 274 74 clip 0 1;
#X obj 334 94 clip 0 1;
#X obj 395 63 * 2;
#X obj 395 109 clip 0 1;
#X obj 334 36 * 1.5;
#X obj 274 51 pow 2;
#X obj 333 58 pow 2;
#X obj 395 86 pow 2;
#X obj 63 257 mull~ 0 20;
#X obj 203 261 mull~ 0 20;
#X obj 346 268 mull~ 0 20;
#X obj 97 327 outlet~;
#X obj 62 26 inlet;
#X obj 63 148 gammeRound /CHORD 7;
#X obj 204 151 gammeRound /GAMME 7;
#X obj 347 159 gammeRound /CHORD 7;
#X obj 395 42 - 0.5;
#X obj 334 15 - 0.25;
#X obj 172 17 r accord-snd;
#X obj 172 38 * 10;
#X obj 119 176 r~ vibratosig;
#X connect 0 0 1 0;
#X connect 1 0 2 0;
#X connect 2 0 25 0;
#X connect 3 0 0 0;
#X connect 4 0 5 0;
#X connect 5 0 6 0;
#X connect 6 0 26 0;
#X connect 7 0 4 0;
#X connect 8 0 31 0;
#X connect 9 0 30 0;
#X connect 10 0 11 0;
#X connect 11 0 12 0;
#X connect 12 0 27 0;
#X connect 13 0 10 0;
#X connect 14 0 32 0;
#X connect 15 0 16 0;
#X connect 15 0 34 0;
#X connect 15 0 33 0;
#X connect 16 0 22 0;
#X connect 17 0 25 1;
#X connect 18 0 26 1;
#X connect 19 0 24 0;
#X connect 20 0 27 1;
#X connect 21 0 23 0;
#X connect 22 0 17 0;
#X connect 23 0 18 0;
#X connect 24 0 20 0;
#X connect 25 0 28 0;
#X connect 26 0 28 0;
#X connect 27 0 28 0;
#X connect 29 0 9 0;
#X connect 29 0 14 0;
#X connect 29 0 8 0;
#X connect 30 0 3 0;
#X connect 31 0 7 0;
#X connect 32 0 13 0;
#X connect 33 0 19 0;
#X connect 34 0 21 0;
#X connect 35 0 36 0;
#X connect 36 0 30 1;
#X connect 36 0 31 1;
#X connect 36 0 32 1;
#X connect 37 0 1 0;
#X connect 37 0 5 0;
#X connect 37 0 11 0;
#X restore 93 220 pd add_voices;
#X floatatom 339 176 5 0 0 0 - - -;
#X obj 608 463 hsl 128 15 0 1 0 0 accord-snd accord-rcv accord -2 -8
0 10 -262144 -1 -1 1400 1;
#X obj 145 92 r accord-snd;
#X obj 145 113 * 10;
#X obj 663 107 declare -path AutoPreset;
#X obj 661 175 bng 15 250 50 0 empty empty load 17 7 0 10 -4034 -1
-1;
#X obj 934 175 bng 15 250 50 0 empty empty save 17 7 0 10 -258113 -1
-1;
#X obj 661 154 loadbang;
#X obj 668 311 hsl 128 15 0 1 0 0 empty empty empty -2 -8 0 10 -262144
-1 -1 5038 1;
#X obj 663 86 declare -path effects -path rhythmic -path moonlib;
#X obj 661 133 apmaster LAMPE;
#X obj 661 195 apmasterfile LAMPE SETTINGS/LAMPE.txt;
#X obj 660 221 rhythmicPatterns LAMPE rhythm1;
#X obj 665 331 MORPHgroup LAMPE FX;
#X obj 607 487 apf LAMPE-FX accord accord;
#X obj 65 474 apecho LAMPE-FX echo 1;
#X obj 665 284 spigot 1;
#X obj 723 265 tgl 15 0 empty empty empty 17 7 0 10 -262144 -1 -1 1
1;
#X obj 607 530 hsl 128 15 0 1 0 0 vibrato-snd vibrato-rcv vibrato -2
-8 0 10 -262144 -1 -1 6099 1;
#X obj 606 554 apf LAMPE-FX vibrato vibrato;
#N canvas 0 79 450 300 vibrato 0;
#X obj 147 119 osc~;
#X obj 147 183 s~ vibratosig;
#X obj 147 140 mull~ 0 20, f 12;
#X obj 183 60 r vibrato-snd;
#X obj 183 81 * 0.5;
#X obj 147 98 * 6;
#X connect 0 0 2 0;
#X connect 2 0 1 0;
#X connect 3 0 4 0;
#X connect 3 0 5 0;
#X connect 4 0 2 1;
#X connect 5 0 0 0;
#X restore 786 528 pd vibrato;
#X obj 76 179 r~ vibratosig;
#X obj 232 123 + 40;
#X connect 2 0 18 0;
#X connect 3 0 15 0;
#X connect 4 0 5 0;
#X connect 5 2 46 0;
#X connect 5 2 65 1;
#X connect 6 0 12 0;
#X connect 7 0 82 0;
#X connect 8 0 9 0;
#X connect 9 0 10 0;
#X connect 10 0 33 0;
#X connect 11 0 13 0;
#X connect 12 0 11 1;
#X connect 14 0 11 0;
#X connect 14 0 59 0;
#X connect 14 0 81 0;
#X connect 15 0 14 1;
#X connect 16 0 17 0;
#X connect 16 0 65 0;
#X connect 17 0 57 0;
#X connect 18 0 19 0;
#X connect 19 0 20 0;
#X connect 20 0 21 0;
#X connect 21 0 22 0;
#X connect 21 1 23 0;
#X connect 21 2 24 0;
#X connect 21 3 25 0;
#X connect 21 4 26 0;
#X connect 22 0 27 0;
#X connect 23 0 27 0;
#X connect 24 0 27 0;
#X connect 25 0 27 0;
#X connect 26 0 27 0;
#X connect 27 0 30 0;
#X connect 28 0 29 0;
#X connect 29 0 31 0;
#X connect 30 0 29 0;
#X connect 31 0 32 0;
#X connect 32 0 47 0;
#X connect 33 0 34 0;
#X connect 34 0 14 0;
#X connect 35 0 36 0;
#X connect 35 1 37 0;
#X connect 36 0 38 0;
#X connect 37 0 38 0;
#X connect 38 0 39 0;
#X connect 39 0 34 1;
#X connect 40 0 33 2;
#X connect 41 0 88 0;
#X connect 42 0 43 0;
#X connect 43 0 44 0;
#X connect 44 0 33 1;
#X connect 46 0 49 0;
#X connect 47 0 52 0;
#X connect 48 0 47 0;
#X connect 48 1 47 1;
#X connect 49 0 48 0;
#X connect 52 0 35 0;
#X connect 53 0 54 0;
#X connect 54 0 55 0;
#X connect 55 0 16 0;
#X connect 56 0 41 0;
#X connect 57 0 8 0;
#X connect 59 0 60 0;
#X connect 60 0 58 0;
#X connect 61 0 62 0;
#X connect 61 0 64 0;
#X connect 62 0 63 0;
#X connect 63 0 59 1;
#X connect 64 0 60 1;
#X connect 65 0 33 0;
#X connect 68 0 69 0;
#X connect 69 0 17 1;
#X connect 71 0 77 0;
#X connect 72 0 77 1;
#X connect 73 0 71 0;
#X connect 74 0 79 0;
#X connect 81 0 11 0;
#X connect 82 0 74 0;
#X connect 83 0 82 1;
#X connect 87 0 9 0;
#X connect 88 0 42 0;
