#N canvas 11 79 739 641 10;
#X declare -path AutoPreset;
#X declare -path effects -path rhythmic -path moonlib;
#X text 99 10 accéléromètre rythme;
#X obj 21 57 declare -path AutoPreset;
#X obj 19 125 bng 15 250 50 0 empty empty load 17 7 0 10 -4034 -1 -1
;
#X obj 292 125 bng 15 250 50 0 empty empty save 17 7 0 10 -258113 -1
-1;
#X obj 19 104 loadbang;
#X obj 353 69 r CLOCK;
#X floatatom 367 153 5 0 0 0 - - -;
#X obj 490 60 t b f;
#X obj 472 103 unpack f;
#X msg 461 34 8;
#X msg 385 111 nd \$1 \$2;
#X msg 432 34 6;
#X msg 533 32 2;
#X msg 563 32 3;
#X msg 593 32 4;
#X msg 505 32 1;
#X msg 402 34 4;
#X obj 353 223 sel 1;
#X obj 353 176 spigot;
#X obj 398 175 tgl 15 0 empty empty empty 17 7 0 10 -4034 -1 -1 1 1
;
#X obj 390 224 bng 15 80 50 0 empty empty empty 17 7 0 10 -262144 -1
-1;
#X obj 23 195 hsl 128 15 0 1 0 0 empty empty empty -2 -8 0 10 -262144
-1 -1 4688 1;
#X text 409 17 nb_steps;
#X text 503 16 clock_divide;
#X obj 21 36 declare -path effects -path rhythmic -path moonlib;
#X obj 353 459 apflang RHYTHM-A fl1;
#X obj 415 522 apecho RHYTHM-A echo1;
#X obj 423 600 aprev RHYTHM-A r1;
#X obj 353 245 rhythmicInstrumentExample RHYTHM-A inst1;
#X obj 472 124 s RYTHM-rhythm1-nbsteps;
#X obj 20 215 MORPHgroup RHYTHM A;
#X obj 18 171 rhythmicPatterns RHYTHM rhythm1;
#X obj 19 83 apmaster RHYTHM;
#X obj 353 130 ndmetro 8 4;
#X msg 549 217 1;
#X obj 353 199 patternRead RHYTHM-rhythm1 1;
#X msg 610 226 3;
#X obj 19 145 apmasterfile RHYTHM SETTINGS/RHYTHM.txt;
#X msg 580 216 2;
#X obj 354 714 throw~ master;
#X obj 353 690 mull~ 0.5 10;
#X text 284 806 bas;
#X obj 472 702 pow 2;
#X obj 79 403 unpack f f;
#X obj 79 302 r RADIO_ASSIETTE;
#X obj 472 681 r RADIO_VOLUME;
#X obj 79 448 spigot 1;
#X obj 129 427 tgl 15 0 empty empty empty 17 7 0 10 -262144 -1 -1 0
1;
#X obj 159 426 spigot 1;
#X obj 209 405 tgl 15 0 empty empty empty 17 7 0 10 -262144 -1 -1 0
1;
#X obj 159 492 * 4.5;
#X obj 159 513 i;
#X obj 159 534 change;
#X obj 159 555 sel 0 1 2 3 4 5;
#X msg 217 581 4;
#X obj 156 618 f;
#X msg 158 582 1;
#X msg 187 581 2;
#X msg 248 581 8;
#X msg 280 582 16;
#X obj 188 304 r RADIO_BOUTON;
#X obj 79 361 spigot, f 11;
#X obj 79 338 l;
#X obj 115 338 t b f;
#X floatatom 124 527 5 0 0 0 - - -;
#X floatatom 97 583 5 0 0 0 - - -;
#X obj 79 471 + 1;
#X obj 79 492 / 2;
#X obj 159 449 + 1;
#X obj 159 470 / 2;
#X obj 472 82 pack 8 8;
#X obj 188 325 rhythmicButton;
#X obj 253 366 r TEMPOLED;
#X obj 253 387 &&;
#X obj 253 408 change;
#X obj 253 429 s RADIOLED;
#X obj 162 193 r RADIO_SELECT;
#X obj 629 133 * 7.5;
#X obj 629 154 i;
#X obj 629 193 change;
#X obj 629 173 + 1;
#X obj 623 257 nbx 3 35 -1e+37 1e+37 0 0 empty empty pattern 0 45 0
20 -4034 -1 -1 1 256;
#X connect 2 0 37 0;
#X connect 3 0 37 1;
#X connect 4 0 2 0;
#X connect 5 0 33 0;
#X connect 7 0 70 0;
#X connect 7 1 70 1;
#X connect 8 0 29 0;
#X connect 9 0 70 0;
#X connect 10 0 33 0;
#X connect 11 0 70 0;
#X connect 12 0 7 0;
#X connect 13 0 7 0;
#X connect 14 0 7 0;
#X connect 15 0 7 0;
#X connect 16 0 70 0;
#X connect 17 0 20 0;
#X connect 17 0 28 0;
#X connect 18 0 35 0;
#X connect 19 0 18 1;
#X connect 21 0 30 0;
#X connect 25 0 26 0;
#X connect 25 0 27 0;
#X connect 25 0 40 0;
#X connect 26 0 27 0;
#X connect 26 0 40 0;
#X connect 27 0 40 0;
#X connect 28 0 25 0;
#X connect 33 0 6 0;
#X connect 33 0 18 0;
#X connect 34 0 35 1;
#X connect 35 0 17 0;
#X connect 36 0 35 1;
#X connect 38 0 35 1;
#X connect 40 0 39 0;
#X connect 42 0 40 1;
#X connect 43 0 46 0;
#X connect 43 1 48 0;
#X connect 44 0 62 0;
#X connect 45 0 42 0;
#X connect 46 0 66 0;
#X connect 47 0 46 1;
#X connect 48 0 64 0;
#X connect 48 0 68 0;
#X connect 49 0 48 1;
#X connect 50 0 51 0;
#X connect 51 0 52 0;
#X connect 51 0 65 0;
#X connect 52 0 53 0;
#X connect 53 0 56 0;
#X connect 53 1 57 0;
#X connect 53 2 54 0;
#X connect 53 3 58 0;
#X connect 53 4 59 0;
#X connect 54 0 55 0;
#X connect 55 0 7 0;
#X connect 56 0 55 0;
#X connect 57 0 55 0;
#X connect 58 0 55 0;
#X connect 59 0 55 0;
#X connect 60 0 71 0;
#X connect 61 0 43 0;
#X connect 62 0 61 0;
#X connect 63 0 62 0;
#X connect 63 1 61 1;
#X connect 66 0 67 0;
#X connect 67 0 77 0;
#X connect 68 0 69 0;
#X connect 69 0 50 0;
#X connect 70 0 8 0;
#X connect 70 0 10 0;
#X connect 71 0 63 0;
#X connect 71 1 19 0;
#X connect 71 1 73 1;
#X connect 72 0 73 0;
#X connect 73 0 74 0;
#X connect 74 0 75 0;
#X connect 76 0 21 0;
#X connect 77 0 78 0;
#X connect 78 0 80 0;
#X connect 79 0 35 1;
#X connect 79 0 81 0;
#X connect 80 0 79 0;
