#N canvas 0 79 450 361 10;
#X obj 37 37 inlet;
#X obj 37 58 sel 1 0;
#X msg 37 130 1;
#X msg 71 131 0;
#X obj 37 151 change;
#X obj 37 172 outlet;
#X msg 177 90 1;
#X obj 177 111 t f b;
#X msg 205 233 0;
#X obj 160 253 spigot;
#X obj 160 274 change;
#X obj 160 315 outlet;
#X msg 49 87 stop;
#X msg 138 218 0;
#X obj 205 212 del 250;
#X obj 205 132 f;
#X obj 205 153 sel 1 0;
#X msg 235 236 1;
#X obj 264 212 del 250;
#X msg 271 185 stop;
#X msg 232 184 stop;
#X obj 37 109 del 250;
#X connect 0 0 1 0;
#X connect 1 0 6 0;
#X connect 1 0 21 0;
#X connect 1 1 3 0;
#X connect 1 1 12 0;
#X connect 1 1 13 0;
#X connect 2 0 4 0;
#X connect 3 0 4 0;
#X connect 4 0 5 0;
#X connect 6 0 7 0;
#X connect 7 0 10 0;
#X connect 7 1 15 0;
#X connect 8 0 9 1;
#X connect 9 0 10 0;
#X connect 10 0 11 0;
#X connect 10 0 15 1;
#X connect 12 0 21 0;
#X connect 13 0 9 0;
#X connect 14 0 8 0;
#X connect 15 0 16 0;
#X connect 16 0 14 0;
#X connect 16 0 17 0;
#X connect 16 0 20 0;
#X connect 16 1 8 0;
#X connect 16 1 18 0;
#X connect 16 1 19 0;
#X connect 17 0 9 1;
#X connect 18 0 17 0;
#X connect 19 0 14 0;
#X connect 20 0 18 0;
#X connect 21 0 2 0;
