#N canvas 266 142 430 250 10;
#X obj 100 24 inlet;
#X obj 100 173 outlet;
#X obj 100 47 route symbol;
#N canvas 0 22 655 599 \$0-split 0;
#X obj 82 411 sel s;
#X obj 165 219 makefilename %%.%ds;
#X msg 165 242 set \$1;
#X obj 149 115 s \$0-mainsym;
#X obj 109 383 r \$0-mainsym;
#X obj 252 450 list prepend;
#X obj 91 516 list;
#X obj 356 450 t a;
#X obj 70 140 until;
#X obj 157 191 + 1;
#X obj 71 250 symbol;
#X obj 129 191 f 1;
#X obj 82 223 r \$0-mainsym;
#X obj 110 88 t b b s;
#X msg 144 168 1;
#X obj 165 267 makefilename;
#X obj 71 164 t b b;
#X msg 216 318 symbol;
#X obj 165 310 t a a;
#X obj 82 435 t b b;
#X obj 109 460 s \$0-stop;
#X obj 43 89 r \$0-stop;
#X obj 321 421 r \$0-init;
#X obj 216 294 r \$0-init;
#X text 209 196 accumulate first n characters of symbol;
#N canvas 766 26 514 754 \$0-find-next-char 0;
#X obj 36 25 inlet;
#X obj 109 716 outlet;
#X obj 36 567 sel s;
#X obj 36 189 until;
#X obj 36 372 makefilename %c;
#X obj 70 220 + 1;
#X obj 36 508 pack s s;
#X obj 36 460 symbol;
#X obj 36 406 t b s;
#X obj 109 675 symbol;
#X obj 36 50 t b a b;
#X obj 55 80 unpack s s;
#X obj 55 132 s \$0-test;
#X obj 112 106 s \$0-current;
#X obj 96 550 r \$0-test;
#X obj 107 443 r \$0-current;
#N canvas 0 22 450 300 %0-float? 0;
#X obj 133 91 inlet;
#X obj 133 202 outlet;
#X obj 222 201 outlet;
#X obj 178 141 moses 58;
#X obj 133 118 moses 48;
#X connect 0 0 4 0;
#X connect 3 0 2 0;
#X connect 3 1 1 0;
#X connect 4 0 1 0;
#X connect 4 1 3 0;
#X restore 99 267 pd %0-float?;
#X obj 108 639 spigot;
#X obj 168 641 spigot;
#X obj 199 682 float;
#X msg 227 342 1;
#X obj 231 543 r \$0-spigot;
#X obj 227 370 s \$0-spigot;
#X obj 181 580 == 0;
#X obj 36 284 t f b;
#X msg 80 301 0;
#X obj 168 325 t f f b;
#X obj 227 658 - 48;
#X obj 80 323 s \$0-spigot;
#X text 99 525 test for match;
#X text 274 658 <- floats instead of symbols;
#X text 81 417 previous match string plus test ascii value;
#X obj 36 536 list-l2s;
#X obj 36 590 t b b;
#X obj 25 657 s \$0-got-it;
#X obj 106 160 r \$0-got-it;
#N canvas -108 110 1017 670 \$0-charmap 0;
#X obj 67 65 table \$0-chartab 256;
#X obj 295 171 list-filter;
#X obj 375 172 route float;
#X obj 295 196 prepent set;
#X msg 295 223 48 49 50 51 52 53 54 55 56 57 95 45 46 101 116 97 111
105 110 115 104 114 69 84 65 79 73 78 83 72 82 100 108 99 117 109 119
120 121 122 102 68 76 67 85 77 87 88 89 90 70 43 61 47 42 35 126 36
103 112 98 118 107 106 113 71 80 66 86 74 75 81 59 44 96 33 64 94 38
40 41 58 39 34 63 62 60 124 92 91 93;
#X obj 238 332 list-sieve;
#X obj 275 356 list-extend;
#X obj 358 338 bng 15 250 50 0 empty empty empty 17 7 0 10 -262144
-1 -1;
#X msg 592 319 0 1 2 3 4 5 6 7 8 9 10 11 12 13 14 15 16 17 18 19 20
21 22 23 24 25 26 27 28 29 30 31 32 37 127 128 129 130 131 132 133
134 135 136 137 138 139 140 141 142 143 144 145 146 147 148 149 150
151 152 153 154 155 156 157 158 159 160 161 162 163 164 165 166 167
168 169 170 171 172 173 174 175 176 177 178 179 180 181 182 183 184
185 186 187 188 189 190 191 192 193 194 195 196 197 198 199 200 201
202 203 204 205 206 207 208 209 210 211 212 213 214 215 216 217 218
219 220 221 222 223 224 225 226 227 228 229 230 231 232 233 234 235
236 237 238 239 240 241 242 243 244 245 246 247 248 249 250 251 252
253 254 255;
#X obj 185 282 f 0;
#X obj 215 283 + 1;
#X msg 205 249 0;
#X obj 293 389 prepent set;
#X msg 171 192 256;
#X obj 177 308 sel 123 125;
#X obj 173 223 until;
#X obj 452 375 prepent add2;
#X obj 37 340 loadbang;
#X obj 35 367 f \$0;
#X obj 120 347 bng 15 250 50 0 empty empty empty 17 7 0 10 -262144
-1 -1;
#X msg 296 24 numeric _-. etaoinshr ETAOINSHR dlcumwxyzf DLCUMWXYZF
+=/*#~$ gpbvkjq GPBVKJQ `!@^&():'"?><|[];
#X msg 295 66 numeric 48 49 50 51 52 53 54 55 56 57 _-. 95 45 46 etaoinshr
101 116 97 111 105 110 115 104 114 ETAOINSHR 69 84 65 79 73 78 83 72
82 dlcumwxyzf 100 108 99 117 109 119 120 121 122 102 DLCUMWXYZF 68
76 67 85 77 87 88 89 90 70 +=/*#~$ 43 61 47 42 35 126 36 gpbvkjq 103
112 98 118 107 106 113 GPBVKJQ 71 80 66 86 74 75 81 `!@^&():'"?><|
59 44 96 33 64 94 38 40 41 58 39 34 63 62 60 124 92 91 93;
#X msg 181 430 \; \$1-chartab 0 48 49 50 51 52 53 54 55 56 57 95 45
46 101 116 97 111 105 110 115 104 114 69 84 65 79 73 78 83 72 82 100
108 99 117 109 119 120 121 122 102 68 76 67 85 77 87 88 89 90 70 43
61 47 42 35 126 36 103 112 98 118 107 106 113 71 80 66 86 74 75 81
59 44 96 33 64 94 38 40 41 58 39 34 63 62 60 124 92 91 93 0 1 2 3 4
5 6 7 8 9 10 11 12 13 14 15 16 17 18 19 20 21 22 23 24 25 26 27 28
29 30 31 32 37 127 128 129 130 131 132 133 134 135 136 137 138 139
140 141 142 143 144 145 146 147 148 149 150 151 152 153 154 155 156
157 158 159 160 161 162 163 164 165 166 167 168 169 170 171 172 173
174 175 176 177 178 179 180 181 182 183 184 185 186 187 188 189 190
191 192 193 194 195 196 197 198 199 200 201 202 203 204 205 206 207
208 209 210 211 212 213 214 215 216 217 218 219 220 221 222 223 224
225 226 227 228 229 230 231 232 233 234 235 236 237 238 239 240 241
242 243 244 245 246 247 248 249 250 251 252 253 254 255;
#X connect 1 0 3 0;
#X connect 1 1 2 0;
#X connect 2 0 1 1;
#X connect 3 0 4 0;
#X connect 4 0 16 0;
#X connect 4 0 5 1;
#X connect 5 1 6 0;
#X connect 6 0 12 0;
#X connect 7 0 6 1;
#X connect 8 0 16 0;
#X connect 9 0 10 0;
#X connect 9 0 14 0;
#X connect 10 0 9 1;
#X connect 11 0 9 1;
#X connect 12 0 8 0;
#X connect 13 0 15 0;
#X connect 14 2 5 0;
#X connect 15 0 9 0;
#X connect 16 0 22 0;
#X connect 17 0 18 0;
#X connect 18 0 22 0;
#X connect 19 0 18 0;
#X connect 21 0 1 0;
#X restore 214 108 pd \$0-charmap;
#X msg 36 164 254;
#X obj 36 245 tabread \$0-chartab;
#X obj 36 220 f 0;
#X msg 88 188 0;
#X text 132 178 <-- iterate through all ascii values -- there is a
character table with a list of often-used characters to maximize the
possibility of achieving a match. If a match is found \, the loop is
terminated.;
#X obj 308 277 tabread \$0-chartab;
#X floatatom 306 255 5 0 0 0 - - -;
#X floatatom 318 311 5 0 0 0 - - -;
#X obj 388 341 key;
#X floatatom 394 375 5 0 0 0 - - -;
#X connect 0 0 10 0;
#X connect 2 0 33 0;
#X connect 3 0 39 0;
#X connect 4 0 8 0;
#X connect 5 0 39 1;
#X connect 6 0 32 0;
#X connect 7 0 6 0;
#X connect 8 0 7 0;
#X connect 8 1 6 1;
#X connect 8 1 9 1;
#X connect 9 0 1 0;
#X connect 10 0 37 0;
#X connect 10 1 11 0;
#X connect 10 2 40 0;
#X connect 11 0 12 0;
#X connect 11 1 13 0;
#X connect 14 0 2 1;
#X connect 15 0 7 1;
#X connect 16 0 24 0;
#X connect 16 1 26 0;
#X connect 17 0 9 0;
#X connect 18 0 19 0;
#X connect 19 0 1 0;
#X connect 20 0 22 0;
#X connect 21 0 18 1;
#X connect 21 0 23 0;
#X connect 23 0 17 1;
#X connect 24 0 4 0;
#X connect 24 1 25 0;
#X connect 25 0 28 0;
#X connect 26 0 4 0;
#X connect 26 1 27 0;
#X connect 26 2 20 0;
#X connect 27 0 19 1;
#X connect 32 0 2 0;
#X connect 33 0 17 0;
#X connect 33 0 18 0;
#X connect 33 1 34 0;
#X connect 35 0 3 1;
#X connect 37 0 3 0;
#X connect 38 0 16 0;
#X connect 39 0 5 0;
#X connect 39 0 38 0;
#X connect 40 0 39 1;
#X connect 42 0 44 0;
#X connect 43 0 42 0;
#X connect 45 0 46 0;
#X restore 192 384 pd \$0-find-next-char;
#X text 323 387 find next character;
#X text 277 341 compare last two chunks to look for the next character
\; init with a blank symbol;
#X text 43 478 stop when we've found all characters;
#X obj 192 344 list-lastx 2;
#X obj 110 56 inlet;
#X obj 192 544 outlet;
#X connect 0 0 19 0;
#X connect 1 0 2 0;
#X connect 2 0 15 0;
#X connect 4 0 0 1;
#X connect 5 0 7 0;
#X connect 7 0 5 1;
#X connect 8 0 16 0;
#X connect 9 0 11 1;
#X connect 10 0 15 0;
#X connect 11 0 9 0;
#X connect 11 0 1 0;
#X connect 12 0 10 1;
#X connect 13 0 8 0;
#X connect 13 1 14 0;
#X connect 13 2 3 0;
#X connect 14 0 11 1;
#X connect 15 0 18 0;
#X connect 16 0 10 0;
#X connect 16 1 11 0;
#X connect 17 0 29 0;
#X connect 18 0 0 0;
#X connect 18 1 29 0;
#X connect 19 0 6 0;
#X connect 19 1 20 0;
#X connect 21 0 8 1;
#X connect 22 0 5 1;
#X connect 23 0 17 0;
#X connect 25 0 5 0;
#X connect 25 0 31 0;
#X connect 29 0 25 0;
#X connect 30 0 13 0;
#X restore 119 118 pd \$0-split;
#N canvas 433 101 787 656 \$0-delimit 0;
#N canvas 680 67 629 496 \$0-argtest 0;
#X obj 207 146 list append \$1;
#X obj 154 102 select s;
#X obj 154 52 t b b;
#X obj 262 86 makefilename $%d-test;
#X obj 154 79 symbol \$1-test;
#X msg 262 66 1;
#X obj 207 124 t b;
#X text 237 126 this is \$1;
#X obj 154 26 loadbang;
#X obj 296 269 symbollength;
#X obj 207 171 route float symbol;
#X obj 207 202 makefilename %g;
#X obj 259 241 symbol;
#X obj 296 353 s \$0-delim-length;
#X obj 259 378 s \$0-delim;
#X obj 296 296 sel 0;
#X msg 296 320 1;
#X floatatom 363 312 5 0 0 0 - - -;
#X obj 21 109 r \$0-delimiter-in;
#X obj 154 286 s \$0-delimiter?;
#X msg 154 222 0;
#X msg 214 258 1;
#X obj 69 136 loadbang;
#X obj 21 175 sel s;
#X msg 69 158 symbol;
#X connect 0 0 10 0;
#X connect 1 0 20 0;
#X connect 1 1 6 0;
#X connect 2 0 4 0;
#X connect 2 1 5 0;
#X connect 3 0 1 1;
#X connect 4 0 1 0;
#X connect 5 0 3 0;
#X connect 6 0 0 0;
#X connect 8 0 2 0;
#X connect 9 0 15 0;
#X connect 9 0 17 0;
#X connect 10 0 11 0;
#X connect 10 1 12 0;
#X connect 11 0 12 0;
#X connect 12 0 9 0;
#X connect 12 0 14 0;
#X connect 12 0 21 0;
#X connect 15 0 16 0;
#X connect 15 1 13 0;
#X connect 16 0 13 0;
#X connect 18 0 23 0;
#X connect 20 0 19 0;
#X connect 21 0 19 0;
#X connect 22 0 24 0;
#X connect 23 0 20 0;
#X connect 23 1 10 0;
#X connect 24 0 23 1;
#X restore 403 63 pd \$0-argtest;
#X obj 172 63 inlet;
#X obj 172 207 list-lastx;
#X obj 229 185 r \$0-delim-length;
#X obj 60 63 inlet;
#X obj 185 614 outlet;
#X obj 199 294 r \$0-delim;
#X obj 172 317 sel s;
#X obj 172 237 list-rev;
#X obj 172 265 list-l2s;
#X obj 354 572 list-extend;
#X obj 417 548 r \$0-init;
#X obj 185 588 list;
#X obj 411 383 r \$0-delim-length;
#X obj 411 408 * -1;
#X obj 354 548 list-l2s;
#X obj 172 181 t a a;
#X obj 326 385 list-extend;
#X obj 354 435 list;
#X obj 70 150 t b b;
#X obj 389 350 r \$0-init;
#X obj 215 338 t b b;
#X obj 291 477 list;
#X obj 193 455 spigot;
#X msg 210 423 0;
#X msg 255 435 1;
#X obj 255 414 t b;
#X obj 354 460 list-splat;
#X obj 309 520 list-l2f;
#X obj 249 555 r \$0-bypass;
#X obj 263 131 spigot;
#X obj 296 107 == 0;
#X obj 263 157 s \$0-bypass;
#X obj 296 62 r \$0-delimiter?;
#X obj 172 151 spigot;
#X connect 1 0 30 0;
#X connect 1 0 34 0;
#X connect 2 0 8 0;
#X connect 3 0 2 1;
#X connect 4 0 19 0;
#X connect 6 0 7 1;
#X connect 7 0 21 0;
#X connect 8 0 9 0;
#X connect 9 0 7 0;
#X connect 10 0 12 1;
#X connect 11 0 10 1;
#X connect 12 0 5 0;
#X connect 13 0 14 0;
#X connect 14 0 27 1;
#X connect 15 0 10 0;
#X connect 16 0 2 0;
#X connect 16 1 17 0;
#X connect 17 0 18 1;
#X connect 17 0 22 1;
#X connect 17 0 26 0;
#X connect 18 0 27 0;
#X connect 19 0 12 0;
#X connect 19 1 23 0;
#X connect 20 0 17 1;
#X connect 21 0 18 0;
#X connect 21 1 17 1;
#X connect 21 1 24 0;
#X connect 22 0 28 0;
#X connect 23 0 22 0;
#X connect 24 0 23 1;
#X connect 25 0 23 1;
#X connect 26 0 25 0;
#X connect 27 0 28 0;
#X connect 28 0 10 0;
#X connect 28 1 15 0;
#X connect 29 0 10 0;
#X connect 30 0 32 0;
#X connect 31 0 30 1;
#X connect 33 0 34 1;
#X connect 33 0 31 0;
#X connect 34 0 16 0;
#X restore 100 149 pd \$0-delimit;
#X obj 100 69 t b s b;
#X obj 139 94 s \$0-init;
#X obj 261 28 inlet;
#X obj 261 54 s \$0-delimiter-in;
#X connect 0 0 2 0;
#X connect 2 0 5 0;
#X connect 3 0 4 1;
#X connect 4 0 1 0;
#X connect 5 0 4 0;
#X connect 5 1 3 0;
#X connect 5 2 6 0;
#X connect 7 0 8 0;
