#N canvas 66 468 1101 396 10;
#X obj 112 188 print;
#X obj 399 215 print;
#X msg 399 71 symbol 1234567890abcdefghijklmnopqrstuvwxyzABCDEFGHIJKLMNOPQRSTUVWXYZ!@#$&*()_+~`./?><[]|
;
#X obj 472 172 unpack 0 0 0 0 0 0 0 0 0 0 s s;
#X floatatom 472 234 5 0 0 0 - - -;
#X floatatom 488 210 5 0 0 0 - - -;
#X symbolatom 632 237 10 0 0 0 - - -;
#X symbolatom 649 211 10 0 0 0 - - -;
#X msg 128 89 symbol VanillaRulzw007;
#X text 513 153 floats and symbols should come out right;
#X text 476 304 neither this nor [list-l2s] handles % appropriately
;
#X text 111 31 Now with delimiters;
#X msg 112 63 symbol 21-split-the-atoms;
#X msg 926 125 symbol is;
#X msg 863 77 symbol PdisgreatPdisgreatPdisgreat;
#X obj 863 178 print;
#X msg 906 102 symbol Pd;
#X obj 340 237 realtime;
#X obj 368 202 b;
#X obj 388 307 print time;
#X obj 345 159 t a b;
#X obj 800 247 realtime;
#X obj 828 212 b;
#X obj 848 317 print time;
#X obj 805 169 t a b;
#X obj 40 247 realtime;
#X obj 68 212 b;
#X obj 88 317 print time;
#X obj 45 169 t a b;
#X msg 132 119 symbol --1.2830e+27-teddy-roosevelt;
#X obj 112 143 list-s2l -;
#X obj 399 155 list-s2l;
#X obj 863 150 list-s2l Pd;
#X connect 2 0 20 0;
#X connect 3 0 4 0;
#X connect 3 1 5 0;
#X connect 3 10 6 0;
#X connect 3 11 7 0;
#X connect 8 0 28 0;
#X connect 12 0 28 0;
#X connect 13 0 32 1;
#X connect 14 0 24 0;
#X connect 16 0 32 1;
#X connect 17 0 19 0;
#X connect 18 0 17 1;
#X connect 20 0 31 0;
#X connect 20 1 17 0;
#X connect 21 0 23 0;
#X connect 22 0 21 1;
#X connect 24 0 32 0;
#X connect 24 1 21 0;
#X connect 25 0 27 0;
#X connect 26 0 25 1;
#X connect 28 0 30 0;
#X connect 28 1 25 0;
#X connect 29 0 28 0;
#X connect 30 0 0 0;
#X connect 30 0 26 0;
#X connect 31 0 1 0;
#X connect 31 0 3 0;
#X connect 31 0 18 0;
#X connect 32 0 15 0;
#X connect 32 0 22 0;
