#N canvas 535 112 498 464 10;
#X declare -stdpath iemlib -lib iemlib1;
#X declare -path ../domoTools/gammabs;
#X declare -path ../domoTools/domonet;
#X declare -path ../domoTools/notebank;
#X declare -path ../domoTools/effects;
#X declare -path ../domoTools/rhythmic;
#X declare -path ../domoTools/song;
#X declare -stdpath motex -path motex -lib motex -path ggee -lib ggee
-path moonlib -path AutoPreset;
#X declare -lib iemlib;
#X obj 24 37 fraise_interface;
#X obj 25 84 r CLOCK;
#X obj 25 127 unpack f f;
#X floatatom 25 149 5 0 0 0 - - -;
#X floatatom 82 149 5 0 0 0 - - -;
#X obj 25 174 bng 50 50 50 0 empty empty empty 17 7 0 10 -262144 -1
-1;
#X obj 102 179 r /BPM;
#X floatatom 102 203 5 0 0 0 - - -;
#X obj 25 105 route list;
#X obj 126 61 r TEMPOLED;
#X obj 25 230 GAMMEKBV /GAMME;
#X obj 25 294 GAMMEKBV /CHORD;
#N canvas 306 264 718 455 notebanks 0;
#X obj 274 181 s NOTEBANK-LOADTABLES;
#X obj 301 159 s NOTEBANK-DATASDIR;
#X obj 274 115 r DATASDIR;
#X obj 274 136 t b a;
#X obj 328 50 accorder;
#X obj 328 71 dac~;
#X obj 340 406 s PLAYER1;
#X text 268 424 play PLAYER_VOICENB BANK_NB NOTE_NB [KEY];
#X floatatom 340 231 5 0 0 0 - - -;
#X msg 340 385 play \$1 \$2 \$3 0;
#X obj 340 252 t b f, f 10;
#X obj 340 273 i;
#X obj 340 294 + 1;
#X obj 340 336 pack f 1 f;
#X msg 340 357 \$1 \$2 \$3;
#X msg 429 285 1;
#X msg 429 305 3;
#X floatatom 453 367 5 0 0 0 - - -;
#X msg 453 387 transpose \$1;
#X obj 119 326 *~ 0.4;
#X obj 61 431 throw~ master;
#X floatatom 464 277 5 0 0 0 - - -;
#X obj 468 202 + 1;
#X obj 459 105 metro 200;
#X obj 462 63 tgl 15 0 empty empty empty 17 7 0 10 -262144 -1 -1 0
1;
#X obj 164 405 throw~ reverb;
#X obj 164 380 *~ 0.8;
#X obj 468 181 random 16;
#X obj 558 325 getnbnotes;
#X floatatom 558 346 5 0 0 0 - - -;
#X obj 119 304 clone noteplayer 2 PLAYER1;
#X obj 340 315 mod 2;
#X obj 18 29 l notebank 2 4 CollectionChantsCollectifs;
#X obj 113 104 s reloadNotes;
#X obj 116 84 bng 15 250 50 0 empty empty empty 17 7 0 10 -262144 -1
-1;
#X obj 18 9 l notebank 1 7 Ant1-wavtables;
#X connect 2 0 3 0;
#X connect 3 0 0 0;
#X connect 3 1 1 0;
#X connect 4 0 5 0;
#X connect 4 0 5 1;
#X connect 8 0 10 0;
#X connect 9 0 6 0;
#X connect 10 0 11 0;
#X connect 10 1 13 2;
#X connect 11 0 12 0;
#X connect 12 0 31 0;
#X connect 13 0 14 0;
#X connect 14 0 9 0;
#X connect 15 0 13 1;
#X connect 16 0 13 1;
#X connect 17 0 18 0;
#X connect 18 0 6 0;
#X connect 19 0 26 0;
#X connect 19 0 20 0;
#X connect 21 0 13 1;
#X connect 21 0 28 0;
#X connect 22 0 8 0;
#X connect 23 0 27 0;
#X connect 24 0 23 0;
#X connect 26 0 25 0;
#X connect 27 0 22 0;
#X connect 28 0 27 1;
#X connect 28 0 29 0;
#X connect 30 0 19 0;
#X connect 31 0 11 1;
#X connect 31 0 13 0;
#X connect 34 0 33 0;
#X restore 26 371 pd notebanks;
#N canvas 676 292 625 384 General 0;
#X obj 26 94 getenv HOME;
#X obj 245 117 bng 15 250 50 0 empty empty empty 17 7 0 10 -262144
-1 -1;
#X symbolatom 26 115 10 0 0 0 - - -;
#X obj 245 179 s DATASDIR;
#X obj 245 96 loadbang;
#X obj 411 49 loadbang;
#X msg 411 70 \; pd dsp 1;
#X obj 480 179 s /GAMME;
#X msg 480 159 2741;
#X obj 417 179 s /CHORD;
#X msg 417 161 145;
#X obj 426 108 loadbang;
#X msg 386 127 1;
#X obj 27 217 bng 15 250 50 0 empty empty empty 17 7 0 10 -258113 -1
-1;
#X msg 134 573 symbol test1;
#X obj 85 248 s /UNLOCKSNAP;
#X obj 85 229 tgl 15 0 empty empty empty 17 7 0 10 -262144 -1 -1 0
1;
#X msg 216 573 symbol test2;
#X obj 134 594 s /SONG;
#X obj 27 271 songMaster SONGS SETTINGS;
#X obj 27 247 5clicks;
#X msg 26 135 symbol \$1/Datas/Domozic/Baguettes;
#N canvas 1 81 450 300 declares 0;
#X obj 28 57 declare -stdpath iemlib -lib iemlib1;
#X obj 29 80 declare -path ../domoTools/gammabs;
#X obj 29 98 declare -path ../domoTools/domonet;
#X obj 29 116 declare -path ../domoTools/notebank;
#X obj 29 134 declare -path ../domoTools/effects;
#X obj 29 153 declare -path ../domoTools/rhythmic;
#X obj 29 171 declare -path ../domoTools/song;
#X obj 27 28 declare -stdpath motex -path motex -lib motex -path ggee
-lib ggee -path moonlib -path AutoPreset;
#X restore 27 9 pd declares;
#X obj 245 135 getdir;
#X msg 245 157 symbol \$1/WAVS;
#X obj 307 94 r reloadNotes;
#X obj 28 31 domonet TupperDrum;
#X connect 0 0 2 0;
#X connect 1 0 23 0;
#X connect 2 0 21 0;
#X connect 4 0 1 0;
#X connect 5 0 6 0;
#X connect 8 0 7 0;
#X connect 10 0 9 0;
#X connect 11 0 10 0;
#X connect 11 0 8 0;
#X connect 12 0 9 0;
#X connect 12 0 7 0;
#X connect 13 0 20 0;
#X connect 14 0 18 0;
#X connect 16 0 15 0;
#X connect 17 0 18 0;
#X connect 20 0 19 0;
#X connect 21 0 3 0;
#X connect 23 0 24 0;
#X connect 24 0 3 0;
#X connect 25 0 1 0;
#X restore 24 58 pd General;
#X obj 126 82 tgl 15 0 empty empty empty 17 7 0 10 -262144 -1 -1 0
1;
#X obj 126 123 s LEDROUGE;
#X obj 196 60 r BOUTONROUGE;
#X obj 196 81 == 0;
#X obj 126 102 spigot 1, f 12;
#N canvas 703 353 662 390 MASTER 0;
#X obj 174 230 limiter~;
#X obj 134 231 z~ 64;
#X obj 134 19 catch~ master;
#X obj 134 252 *~;
#X obj 125 337 dac~;
#X obj 342 23 catch~ reverb;
#X obj 264 137 r POTVOL;
#X msg 264 197 \$1 20;
#X obj 264 218 line~;
#X obj 133 195 *~;
#X obj 323 146 hsl 128 15 0 1 0 0 empty empty empty -2 -8 0 10 -262144
-1 -1 6350 1;
#X obj 380 102 loadbang;
#X msg 380 123 0.5;
#X obj 264 176 pow 2;
#X obj 341 45 l rev3~ 100 92 2000 20;
#X obj 226 18 r POTHIP;
#X obj 226 81 mtof;
#X floatatom 281 67 8 0 0 0 - - -;
#X obj 289 3 hsl 128 15 0 1 0 0 empty empty empty -2 -8 0 10 -262144
-1 -1 0 1;
#X obj 412 251 declare -lib iemlib;
#X obj 226 60 + 120;
#X obj 134 40 *~ 0.1;
#X obj 226 40 * -110;
#X obj 134 72 hip~ 10;
#X obj 133 121 hp6_butt~ 14 20;
#X connect 0 0 3 1;
#X connect 1 0 3 0;
#X connect 2 0 21 0;
#X connect 3 0 4 0;
#X connect 3 0 4 1;
#X connect 6 0 13 0;
#X connect 7 0 8 0;
#X connect 8 0 9 1;
#X connect 9 0 0 0;
#X connect 9 0 1 0;
#X connect 10 0 13 0;
#X connect 11 0 12 0;
#X connect 12 0 10 0;
#X connect 13 0 7 0;
#X connect 15 0 22 0;
#X connect 16 0 17 0;
#X connect 16 0 24 1;
#X connect 18 0 22 0;
#X connect 20 0 16 0;
#X connect 21 0 23 0;
#X connect 22 0 20 0;
#X connect 23 0 24 0;
#X connect 24 0 9 0;
#X restore 23 15 pd MASTER;
#X obj 170 282 TUPPER 1;
#X text 229 284 grosse caisse;
#X text 227 305 caisse claire;
#X text 248 334 charleyston;
#X text 249 358 basse;
#X text 232 255 hélicon;
#X obj 326 76 sel 1;
#X obj 326 99 tgl 15 0 empty empty empty 17 7 0 10 -262144 -1 -1 0
1;
#X obj 326 119 sel 0 1;
#X msg 321 143 symbol /CHORD;
#X msg 344 169 symbol /GAMME;
#X obj 321 195 s MAINGAMME;
#X obj 319 7 r BOUILLOIRE_BOUTON;
#X obj 319 28 s BOUTONROUGE;
#X obj 295 240 auxpd_tupper PHARE2;
#X obj 170 257 rem PHARE;
#X obj 339 307 auxpd_tupper Master3;
#X obj 169 334 rem TUPPER 3;
#X obj 169 358 rem TUPPER 4;
#X obj 170 306 TUPPER 2;
#N canvas 365 112 1275 378 params 0;
#X obj 138 18 inlet;
#X obj 138 63 b;
#X obj 39 195 f;
#X obj 39 152 r /GAMME;
#X msg 39 221 /GAMME \$1;
#X obj 259 191 f;
#X obj 39 313 outlet;
#X obj 167 153 r CLOCK;
#X msg 167 217 CLOCK \$1 \$2;
#X obj 259 168 r TUPPER3_SELECT;
#X msg 259 217 TUPPER3_SELECT \$1;
#X obj 378 191 f;
#X obj 378 168 r TUPPER3_FX;
#X msg 378 217 TUPPER3_FX \$1;
#X obj 470 191 f;
#X obj 470 168 r TUPPER3_BOUTON;
#X msg 470 217 TUPPER3_BOUTON \$1;
#X obj 710 167 r TUPPER3_ASSIETTE;
#X msg 710 216 TUPPER3_ASSIETTE \$1 \$2;
#X obj 591 190 f;
#X obj 591 167 r TUPPER3_VOLUME;
#X msg 591 216 TUPPER3_VOLUME \$1;
#X obj 871 189 f;
#X obj 990 189 f;
#X obj 1082 189 f;
#X obj 1203 188 f;
#X obj 871 166 r TUPPER4_SELECT;
#X msg 871 215 TUPPER4_SELECT \$1;
#X obj 989 166 r TUPPER4_FX;
#X msg 990 215 TUPPER4_FX \$1;
#X obj 1082 166 r TUPPER4_BOUTON;
#X msg 1082 215 TUPPER4_BOUTON \$1;
#X msg 1203 214 TUPPER4_VOLUME \$1;
#X obj 1203 165 r TUPPER4_VOLUME;
#X obj 1320 165 r TUPPER4_ASSIETTE;
#X msg 1322 214 TUPPER4_ASSIETTE \$1 \$2;
#X obj 138 42 route _loaded TUPPER3_LED TUPPER4_LED;
#X obj 211 67 s TUPPER3_LED;
#X obj 301 67 s TUPPER4_LED;
#X floatatom 401 85 5 0 0 0 - - -;
#X floatatom 80 199 5 0 0 0 - - -;
#X obj 105 162 bng 15 250 50 0 empty empty empty 17 7 0 10 -262144
-1 -1;
#X msg 56 100 145;
#X obj 16 53 f;
#X floatatom 57 57 5 0 0 0 - - -;
#X obj 16 10 r /CHORD;
#X msg 16 79 /CHORD \$1;
#X msg 79 17 0;
#X obj 138 84 del 1000;
#X obj 185 330 bng 15 250 50 0 empty empty empty 17 7 0 10 -262144
-1 -1;
#X connect 0 0 36 0;
#X connect 1 0 48 0;
#X connect 2 0 4 0;
#X connect 2 0 40 0;
#X connect 3 0 2 0;
#X connect 4 0 6 0;
#X connect 5 0 10 0;
#X connect 7 0 8 0;
#X connect 8 0 6 0;
#X connect 9 0 5 0;
#X connect 10 0 6 0;
#X connect 11 0 13 0;
#X connect 12 0 11 0;
#X connect 13 0 6 0;
#X connect 14 0 16 0;
#X connect 15 0 14 0;
#X connect 16 0 6 0;
#X connect 17 0 18 0;
#X connect 18 0 6 0;
#X connect 19 0 21 0;
#X connect 20 0 19 0;
#X connect 21 0 6 0;
#X connect 22 0 27 0;
#X connect 23 0 29 0;
#X connect 24 0 31 0;
#X connect 25 0 32 0;
#X connect 26 0 22 0;
#X connect 27 0 6 0;
#X connect 28 0 23 0;
#X connect 29 0 6 0;
#X connect 30 0 24 0;
#X connect 31 0 6 0;
#X connect 32 0 6 0;
#X connect 33 0 25 0;
#X connect 34 0 35 0;
#X connect 35 0 6 0;
#X connect 36 0 1 0;
#X connect 36 1 37 0;
#X connect 36 2 38 0;
#X connect 36 2 39 0;
#X connect 41 0 2 0;
#X connect 42 0 4 0;
#X connect 43 0 46 0;
#X connect 43 0 44 0;
#X connect 45 0 43 0;
#X connect 46 0 6 0;
#X connect 47 0 43 0;
#X connect 48 0 2 0;
#X connect 48 0 5 0;
#X connect 48 0 11 0;
#X connect 48 0 25 0;
#X connect 48 0 24 0;
#X connect 48 0 23 0;
#X connect 48 0 22 0;
#X connect 48 0 19 0;
#X connect 48 0 14 0;
#X connect 48 0 43 0;
#X restore 316 370 pd params;
#N canvas 1 81 751 310 params 0;
#X obj 138 18 inlet;
#X obj 138 42 route _loaded;
#X obj 138 63 b;
#X obj 138 84 del 10;
#X obj 39 195 f;
#X obj 39 152 r /GAMME;
#X msg 39 221 /GAMME \$1;
#X obj 167 191 f;
#X obj 167 153 r PHARE_ASSIETTE;
#X msg 167 217 PHARE_ASSIETTE \$1;
#X obj 302 191 f;
#X obj 302 153 r PHARE_BOUTON;
#X msg 302 217 PHARE_BOUTON \$1;
#X obj 411 189 f;
#X obj 411 151 r PHARE_VOLUME;
#X msg 411 215 PHARE_VOLUME \$1;
#X obj 515 190 f;
#X obj 515 152 r PHARE_SEL1;
#X msg 515 216 PHARE_SEL1 \$1;
#X obj 606 191 f;
#X obj 606 153 r PHARE_SEL2;
#X msg 606 217 PHARE_SEL2 \$1;
#X obj 39 267 outlet;
#X connect 0 0 1 0;
#X connect 1 0 2 0;
#X connect 2 0 3 0;
#X connect 3 0 4 0;
#X connect 3 0 19 0;
#X connect 3 0 16 0;
#X connect 3 0 13 0;
#X connect 3 0 10 0;
#X connect 3 0 7 0;
#X connect 4 0 6 0;
#X connect 5 0 4 0;
#X connect 6 0 22 0;
#X connect 7 0 9 0;
#X connect 8 0 7 0;
#X connect 9 0 22 0;
#X connect 10 0 12 0;
#X connect 11 0 10 0;
#X connect 12 0 22 0;
#X connect 13 0 15 0;
#X connect 14 0 13 0;
#X connect 15 0 22 0;
#X connect 16 0 18 0;
#X connect 17 0 16 0;
#X connect 18 0 22 0;
#X connect 19 0 21 0;
#X connect 20 0 19 0;
#X connect 21 0 22 0;
#X restore 281 219 pd params;
#X obj 407 385 throw~ master;
#X connect 2 0 3 0;
#X connect 2 1 4 0;
#X connect 3 0 5 0;
#X connect 6 0 7 0;
#X connect 8 0 2 0;
#X connect 9 0 14 0;
#X connect 14 0 18 0;
#X connect 16 0 17 0;
#X connect 16 0 26 0;
#X connect 17 0 18 1;
#X connect 18 0 15 0;
#X connect 26 0 27 0;
#X connect 27 0 28 0;
#X connect 28 0 29 0;
#X connect 28 1 30 0;
#X connect 29 0 31 0;
#X connect 30 0 31 0;
#X connect 32 0 33 0;
#X connect 34 0 41 0;
#X connect 34 1 42 0;
#X connect 36 0 40 0;
#X connect 36 1 42 0;
#X connect 40 0 36 0;
#X connect 41 0 34 0;
