#N canvas 295 163 510 357 10;
#X msg 47 189 pd~ stop;
#X obj 228 120 loadbang;
#X msg 228 165 pd~ start -nogui \$1.pd;
#X obj 22 42 bng 15 250 50 0 empty empty GUI 17 7 0 10 -4034 -1 -1
;
#X msg 113 165 pd~ start \$1.pd;
#X obj 228 141 symbol \$1;
#X obj 113 141 symbol \$1;
#X obj 315 254 outlet~;
#X obj 188 289 outlet;
#X obj 113 251 route _loaded;
#X obj 113 272 b;
#X obj 62 42 bng 15 250 50 0 empty empty noGUI 17 7 0 10 -257985 -1
-1;
#X obj 381 164 inlet;
#X obj 113 230 pd~ -ninsig 1 -noutsig 1, f 34;
#X obj 435 165 inlet~;
#X obj 113 314 s \$0-resend;
#X obj 82 288 bng 15 250 50 0 empty empty empty 17 7 0 10 -262144 -1
-1;
#X obj 113 293 del 10;
#X connect 0 0 13 0;
#X connect 1 0 5 0;
#X connect 2 0 13 0;
#X connect 3 0 6 0;
#X connect 4 0 13 0;
#X connect 5 0 2 0;
#X connect 6 0 4 0;
#X connect 9 0 10 0;
#X connect 10 0 17 0;
#X connect 11 0 5 0;
#X connect 12 0 13 0;
#X connect 13 0 9 0;
#X connect 13 0 8 0;
#X connect 13 1 7 0;
#X connect 14 0 13 0;
#X connect 16 0 15 0;
#X connect 17 0 15 0;
#X coords 0 -1 1 1 90 40 1 20 20;
