#N canvas 89 210 1232 757 10;
#X declare -path ../domoTools/decoupeur -path ../domoTools/effects;
#X obj 10 49 r TUPPER\$1_SELBOUTON;
#X obj 10 72 tgl 18 0 empty empty empty 0 -9 0 10 #fcfcfc #000000 #000000 0 1;
#X obj 141 49 loadbang;
#X msg 141 72 0;
#X obj 10 118 switch~;
#X obj 64 119 s \$0-on;
#X obj 207 76 bng 15 250 50 0 empty empty load 17 7 0 10 #00fc04 #000000 #000000;
#X obj 498 79 bng 15 250 50 0 empty empty save 17 7 0 10 #fc0400 #000000 #000000;
#X obj 207 28 loadbang;
#X obj 207 96 apmasterfile DECOUPEUR\$1 SETTINGS/DECOUPEUR\$1.txt;
#X obj 9 146 decoupeur_ctl decoupeur-setting1 DECOUPEUR\$1;
#X obj 12 13 declare -path ../domoTools/decoupeur -path ../domoTools/effects, f 63;
#X obj 296 52 apmaster DECOUPEUR\$1;
#X obj 37 415 mull~ 0 10;
#X obj 130 396 r TUPPER\$1_VOLUME;
#X obj 130 417 pow 2;
#X obj 35 713 throw~ master;
#X obj 193 423 hsl 128 15 0 1 0 0 empty empty empty -2 -8 0 10 #fcfcfc #000000 #000000 0 1;
#X obj 37 271 fragseq DECOUPEUR\$1-SEQ fragseq1;
#X obj 359 397 loadbang;
#X obj 359 446 s DECOUPEUR\$1-SEQ-fragseq1-sample;
#X obj 420 395 bng 18 250 50 0 empty empty empty 0 -9 0 10 #fcfcfc #000000 #000000;
#X obj 436 124 hsl 128 15 0 1 0 0 empty empty empty -2 -8 0 10 #fcfcfc #000000 #000000 0 1;
#X obj 433 144 MORPHgroup DECOUPEUR\$1 SEQ;
#N canvas 800 350 450 519 listwavs 0;
#X obj 55 49 loadbang;
#X obj 55 126 file glob;
#X obj 115 45 bng 18 250 50 0 empty empty empty 0 -9 0 10 #fcfcfc #000000 #000000;
#X obj 55 75 t b b, f 26;
#X obj 221 44 text define \$0-wavs;
#X obj 208 127 s \$0-wavs;
#X msg 208 101 clear;
#X obj 55 149 unpack s;
#X obj 61 275 text size \$0-wavs;
#X obj 61 370 text get \$0-wavs;
#X obj 64 226 hsl 153 18 0 1 0 0 empty empty empty -2 -9 0 10 #fcfcfc #000000 #000000 0 1;
#X obj 61 249 t b f;
#X obj 61 298 *;
#X obj 61 321 i;
#X obj 61 344 change;
#X listbox 61 393 20 0 0 0 - - - 0;
#X obj 55 172 text insert \$0-wavs 1e+06;
#X obj 55 100 symbol wavs/DEC\$1/*.wav;
#X obj 61 466 s DEC\$1-1-opensample;
#X obj 306 318 r DEC\$1-DATASDIR;
#X obj 244 318 pack s s;
#X msg 236 400 symbol \$2/\$1;
#X listbox 96 443 20 0 0 0 - - - 0;
#X obj 61 415 file which;
#X obj 257 203 inlet;
#X obj 230 467 s DECOUPEUR\$1-SEQ-fragseq1-changeall-rcv;
#X obj 229 443 del 200;
#X obj 229 423 b;
#X connect 0 0 3 0;
#X connect 1 0 7 0;
#X connect 2 0 3 0;
#X connect 3 0 17 0;
#X connect 3 1 6 0;
#X connect 6 0 5 0;
#X connect 7 0 16 0;
#X connect 8 0 12 0;
#X connect 9 0 15 0;
#X connect 10 0 11 0;
#X connect 11 0 8 0;
#X connect 11 1 12 1;
#X connect 12 0 13 0;
#X connect 13 0 14 0;
#X connect 14 0 9 0;
#X connect 15 0 23 0;
#X connect 17 0 1 0;
#X connect 19 0 20 1;
#X connect 23 0 18 0;
#X connect 23 0 27 0;
#X connect 24 0 10 0;
#X connect 27 0 26 0;
#X restore 605 292 pd listwavs;
#X obj 10 95 == 1;
#X obj 578 351 r TUPPER\$1_BOUTON;
#X obj 578 372 rhythmicButton \$0;
#X floatatom 577 422 5 0 0 0 - - - 0;
#X obj 577 467 bng 15 250 50 0 empty empty empty 17 7 0 10 #fcfcfc #000000 #000000;
#X obj 577 444 s DECOUPEUR\$1-SEQ-fragseq1-vol-rcv;
#X obj 577 487 s DECOUPEUR\$1-SEQ-fragseq1-changeall-rcv;
#X obj 545 384 tgl 18 0 empty empty empty 0 -9 0 10 #fcfcfc #000000 #000000 0 1;
#X obj 678 394 s DECOUPEUR\$1-SEQ-fragseq1-on-rcv;
#X obj 726 353 tgl 18 0 empty empty empty 0 -9 0 10 #fcfcfc #000000 #000000 0 1;
#X obj 456 268 pdcontrol;
#X msg 456 246 dir;
#X obj 8 226 decsample DEC\$1 1 decoupeur-setting1;
#X msg 456 291 symbol \$1/wavs;
#X obj 456 314 s DEC\$1-DATASDIR;
#X obj 552 347 tgl 18 0 empty empty empty 0 -9 0 10 #fcfcfc #000000 #000000 0 1;
#X obj 359 422 symbol DEC\$1-1;
#X obj 716 327 s TUPPER\$1_LED;
#X obj 716 257 change;
#X obj 716 279 spigot;
#X obj 761 279 r \$0-on;
#X obj 716 303 * 1023;
#X obj 794 205 r \$0-on;
#X obj 606 210 r TUPPER\$1_SELECT;
#X obj 456 223 loadbang;
#X obj 605 231 songParam SONGS DEC\$1_SELECT 0.1;
#X obj 783 96 r \$0-on;
#X obj 598 96 r TUPPER\$1_FX;
#X obj 597 117 songParam SONGS DEC\$1_FX 0.1;
#X obj 440 55 s DECOUPEUR\$1-SEQ-setap-snd;
#X msg 440 32 fragseq1-pitch _nbpattern_ 0;
#X obj 893 76 r TUPPER\$1_ASSIETTE;
#X obj 893 99 unpack f f;
#X obj 893 147 songParam SONGS DEC\$1_X 0.1;
#X obj 950 122 songParam SONGS DEC\$1_Y 0.1;
#X obj 578 395 s \$0-axlON;
#X obj 1032 77 r \$0-axlON;
#X floatatom 832 172 5 0 0 0 - - - 0;
#X obj 950 198 s DECOUPEUR\$1-SEQ-fragseq1-pitch-rcv;
#X obj 950 175 * 6;
#X obj 207 52 del 1;
#X obj 440 11 loadbang;
#X obj 896 269 hsl 128 15 0 1 0 0 empty empty empty -2 -8 0 10 #fcfcfc #000000 #000000 0 1;
#X obj 893 289 MORPHgroup DECOUPEUR\$1 FX;
#X obj 893 197 + 0.5;
#X obj 53 677 rev3~ 100 70, f 15;
#X obj 893 222 clip 0 1;
#X obj 893 246 change;
#X obj 893 172 * -1;
#X obj 87 606 apslider DECOUPEUR\$1-FX revvol;
#X obj 87 643 * 100;
#X obj 163 680 * 100;
#X obj 163 643 apslider DECOUPEUR\$1-FX revtime;
#X obj 36 449 apmoog DECOUPEUR\$1-FX bob1;
#X obj 36 526 apdisto DECOUPEUR\$1-FX disto1;
#X connect 0 0 1 0;
#X connect 1 0 25 0;
#X connect 2 0 3 0;
#X connect 3 0 1 0;
#X connect 6 0 9 0;
#X connect 7 0 9 1;
#X connect 8 0 65 0;
#X connect 13 0 78 0;
#X connect 14 0 15 0;
#X connect 15 0 13 1;
#X connect 17 0 15 0;
#X connect 18 0 13 0;
#X connect 18 1 13 0;
#X connect 19 0 41 0;
#X connect 21 0 41 0;
#X connect 22 0 23 0;
#X connect 25 0 4 0;
#X connect 25 0 5 0;
#X connect 26 0 27 0;
#X connect 26 0 40 0;
#X connect 27 0 32 0;
#X connect 27 0 60 0;
#X connect 27 1 34 0;
#X connect 27 1 33 0;
#X connect 27 1 43 0;
#X connect 28 0 30 0;
#X connect 29 0 31 0;
#X connect 35 0 38 0;
#X connect 36 0 35 0;
#X connect 37 0 13 0;
#X connect 38 0 39 0;
#X connect 41 0 20 0;
#X connect 43 0 44 0;
#X connect 44 0 46 0;
#X connect 45 0 44 1;
#X connect 46 0 42 0;
#X connect 47 0 50 1;
#X connect 48 0 50 0;
#X connect 49 0 36 0;
#X connect 50 0 24 0;
#X connect 51 0 53 1;
#X connect 52 0 53 0;
#X connect 53 0 22 0;
#X connect 55 0 54 0;
#X connect 56 0 57 0;
#X connect 57 0 58 0;
#X connect 57 1 59 0;
#X connect 58 0 73 0;
#X connect 59 0 64 0;
#X connect 61 0 58 1;
#X connect 61 0 59 1;
#X connect 64 0 63 0;
#X connect 65 0 6 0;
#X connect 66 0 55 0;
#X connect 67 0 68 0;
#X connect 69 0 71 0;
#X connect 70 0 16 0;
#X connect 71 0 72 0;
#X connect 72 0 67 0;
#X connect 73 0 69 0;
#X connect 74 0 75 0;
#X connect 75 0 70 2;
#X connect 76 0 70 3;
#X connect 77 0 76 0;
#X connect 78 0 79 0;
#X connect 79 0 16 0;
#X connect 79 0 70 0;
