#N canvas 477 127 405 478 10;
#X declare -path Fraise -stdpath Fraise;
#X obj 21 16 declare -path Fraise -stdpath Fraise;
#X obj 21 38 pied/pied 0 41424;
#X obj 23 134 fruit/fruit 1 PHARE 10 fwPhare;
#X obj 25 204 fruit/fruit 1 TUPPER1 11 fwTupper;
#N canvas 60 119 573 539 Phare 0;
#X text 210 109 BoutonRouge: K11 / LED:K12(LED sur Vdd);
#X text 210 93 Pots: K1 K2 K3;
#X obj 19 198 route s;
#X obj 58 218 analog/parse;
#X obj 433 283 r LEDROUGE;
#X msg 455 328 R;
#X text 481 329 reset I2C;
#X obj 352 401 route 0 1 2;
#X obj 352 462 s POTSELECT;
#X obj 373 442 s POTFX;
#X obj 394 422 s POTVOL;
#X obj 168 258 route 0 1 2;
#X obj 168 237 spigot;
#X floatatom 168 293 5 0 0 0 - - -;
#X floatatom 206 292 5 0 0 0 - - -;
#X floatatom 244 292 5 0 0 0 - - -;
#X obj 201 215 tgl 15 0 empty empty empty 17 7 0 10 -262144 -1 -1 0
1;
#X obj 58 238 unpack f f;
#X obj 58 281 pack f f, f 10;
#X obj 456 367 tgl 15 0 empty empty empty 17 7 0 10 -262144 -1 -1 0
1;
#X msg 433 307 S\$1 \, L\$1;
#X obj 58 302 route 0 1 2;
#X obj 115 259 / 8192;
#X text 209 74 I2C1: K5:SCK K7:SDA;
#N canvas 587 82 501 630 AXL 0;
#N canvas 472 92 495 705 attacks 0;
#X obj 20 13 inlet;
#X obj 20 57 unpack f f f;
#X obj 20 34 t a a, f 26;
#X obj 20 78 abs;
#X obj 54 78 abs;
#X obj 89 79 abs;
#X obj 20 119 moses 0, f 14;
#X obj 101 158 t b f, f 6;
#X obj 101 179 list, f 13;
#X obj 101 200 t b l, f 8;
#X obj 128 272 list, f 8;
#X obj 101 242 t b b;
#X obj 185 328 unpack f f f;
#X obj 185 349 abs;
#X obj 219 349 abs;
#X obj 254 349 abs;
#X obj 185 370 max;
#X obj 219 369 max;
#X msg 218 215 3;
#X obj 303 348 unpack f f f;
#X obj 303 369 abs;
#X obj 337 369 abs;
#X obj 372 369 abs;
#X obj 288 432 sel;
#X obj 322 431 sel;
#X obj 357 433 sel;
#X msg 288 453 0;
#X msg 322 452 1;
#X msg 357 454 2;
#X obj 185 391 t b f;
#X obj 128 293 t a a a, f 19;
#X obj 128 542 list split;
#X obj 185 494 f;
#X obj 185 515 t f f, f 10;
#X obj 156 566 list split 1;
#X obj 156 611 pack f f, f 15;
#X msg 156 632 \$2 \$1;
#X obj 156 654 outlet;
#X obj 156 587 / 16;
#X obj 101 221 del 30;
#X connect 0 0 2 0;
#X connect 1 0 3 0;
#X connect 1 1 4 0;
#X connect 1 2 5 0;
#X connect 2 0 1 0;
#X connect 2 1 8 1;
#X connect 3 0 6 0;
#X connect 4 0 6 0;
#X connect 5 0 6 0;
#X connect 6 1 7 0;
#X connect 7 0 8 0;
#X connect 7 1 6 1;
#X connect 8 0 9 0;
#X connect 9 0 39 0;
#X connect 9 1 10 1;
#X connect 10 0 30 0;
#X connect 11 0 18 0;
#X connect 11 1 10 0;
#X connect 12 0 13 0;
#X connect 12 1 14 0;
#X connect 12 2 15 0;
#X connect 13 0 16 0;
#X connect 14 0 17 0;
#X connect 15 0 17 1;
#X connect 16 0 29 0;
#X connect 17 0 16 1;
#X connect 18 0 6 1;
#X connect 19 0 20 0;
#X connect 19 1 21 0;
#X connect 19 2 22 0;
#X connect 20 0 23 1;
#X connect 21 0 24 1;
#X connect 22 0 25 1;
#X connect 23 0 26 0;
#X connect 24 0 27 0;
#X connect 25 0 28 0;
#X connect 26 0 32 1;
#X connect 27 0 32 1;
#X connect 28 0 32 1;
#X connect 29 0 32 0;
#X connect 29 1 23 0;
#X connect 29 1 25 0;
#X connect 29 1 24 0;
#X connect 30 0 31 0;
#X connect 30 1 12 0;
#X connect 30 2 19 0;
#X connect 31 1 34 0;
#X connect 32 0 33 0;
#X connect 33 0 31 1;
#X connect 33 1 35 1;
#X connect 34 0 38 0;
#X connect 35 0 36 0;
#X connect 36 0 37 0;
#X connect 38 0 35 0;
#X connect 39 0 11 0;
#X restore 23 148 pd attacks;
#X obj 145 255 unpack f f f;
#X obj 179 276 t f f;
#X obj 179 297 *, f 5;
#X obj 218 276 t f f;
#X obj 218 297 *, f 5;
#X obj 179 318 +, f 7;
#X obj 179 339 sqrt;
#X obj 145 367 atan2, f 6;
#X obj 22 279 unpack f f f;
#X obj 56 300 t f f;
#X obj 56 321 *, f 5;
#X obj 95 300 t f f;
#X obj 95 321 *, f 5;
#X obj 56 342 +, f 7;
#X obj 56 363 sqrt;
#X obj 22 391 atan2, f 6;
#X obj 145 388 clip -0.7 0.7;
#X obj 22 412 clip -0.7 0.7;
#X obj 145 412 / 0.7;
#X obj 22 435 / -0.7;
#X obj 22 228 t a a;
#X obj 22 456 pack f f, f 21;
#X obj 165 63 s AXL_SEPARATION;
#X obj 165 20 loadbang;
#X msg 165 41 5;
#X obj 17 45 route 1;
#X obj 17 20 fruit/receive PHARE;
#X obj 17 84 axlprocess PHARE;
#X obj 23 127 r AXLRAWPHARE;
#X obj 23 169 s PHARE_ATTACK;
#X obj 22 476 s PHARE_ASSIETTE;
#X obj 22 207 r AXLSLOWPHARE;
#X floatatom 259 465 5 0 0 0 - - -;
#X floatatom 82 534 5 0 0 0 - - -;
#X msg 22 255 \$2 \$1 \$3;
#X connect 0 0 30 0;
#X connect 1 0 8 0;
#X connect 1 1 2 0;
#X connect 1 2 4 0;
#X connect 2 0 3 0;
#X connect 2 1 3 1;
#X connect 3 0 6 0;
#X connect 4 0 5 0;
#X connect 4 1 5 1;
#X connect 5 0 6 1;
#X connect 6 0 7 0;
#X connect 7 0 8 1;
#X connect 8 0 17 0;
#X connect 9 0 16 0;
#X connect 9 1 10 0;
#X connect 9 2 12 0;
#X connect 10 0 11 0;
#X connect 10 1 11 1;
#X connect 11 0 14 0;
#X connect 12 0 13 0;
#X connect 12 1 13 1;
#X connect 13 0 14 1;
#X connect 14 0 15 0;
#X connect 15 0 16 1;
#X connect 16 0 18 0;
#X connect 17 0 19 0;
#X connect 18 0 20 0;
#X connect 19 0 22 1;
#X connect 19 0 33 0;
#X connect 20 0 22 0;
#X connect 20 0 34 0;
#X connect 21 0 35 0;
#X connect 21 1 1 0;
#X connect 22 0 31 0;
#X connect 24 0 25 0;
#X connect 25 0 23 0;
#X connect 26 0 28 0;
#X connect 27 0 26 0;
#X connect 29 0 0 0;
#X connect 32 0 21 0;
#X connect 35 0 9 0;
#X restore 18 94 pd AXL;
#X obj 19 177 fruit/receive PHARE;
#X obj 19 485 s PHARE_BOUTON;
#X obj 19 419 route 0 1 2;
#X obj 40 465 s PHARE_SEL1;
#X obj 11 514 tgl 15 0 empty empty empty 17 7 0 10 -262144 -1 -1 0
1;
#X obj 62 504 tgl 15 0 empty empty empty 17 7 0 10 -262144 -1 -1 0
1;
#X obj 126 482 tgl 15 0 empty empty empty 17 7 0 10 -262144 -1 -1 0
1;
#X obj 61 443 s PHARE_SEL2;
#X obj 346 328 fruit/send2 PHARE;
#X obj 387 255 tgl 15 0 empty empty empty 17 7 0 10 -262144 -1 -1 0
1;
#X obj 58 333 s PHARE_VOLUME;
#X connect 2 0 27 0;
#X connect 2 1 3 0;
#X connect 3 0 17 0;
#X connect 4 0 20 0;
#X connect 5 0 33 1;
#X connect 7 0 8 0;
#X connect 7 1 9 0;
#X connect 7 2 10 0;
#X connect 11 0 13 0;
#X connect 11 1 14 0;
#X connect 11 2 15 0;
#X connect 12 0 11 0;
#X connect 16 0 12 1;
#X connect 17 0 18 0;
#X connect 17 1 22 0;
#X connect 18 0 21 0;
#X connect 18 0 12 0;
#X connect 20 0 33 1;
#X connect 21 0 35 0;
#X connect 22 0 18 1;
#X connect 25 0 2 0;
#X connect 27 0 26 0;
#X connect 27 0 29 0;
#X connect 27 1 28 0;
#X connect 27 1 30 0;
#X connect 27 2 31 0;
#X connect 27 2 32 0;
#X connect 34 0 20 0;
#X restore 222 147 pd Phare;
#X obj 25 252 fruit/fruit 1 TUPPER2 12 fwTupper;
#X obj 25 301 fruit/fruit 1 TUPPER3 13 fwTupper;
#X obj 25 349 fruit/fruit 1 TUPPER4 14 fwTupper;
#X obj 246 226 Tupper-fraise 1;
#X obj 244 264 Tupper-fraise 2;
#X obj 246 319 Tupper-fraise 3;
#X obj 244 357 Tupper-fraise 4;
#N canvas 0 79 602 573 Bouilloire 0;
#X text 210 109 BoutonRouge: K11 / LED:K12(LED sur Vdd);
#X text 210 93 Pots: K1 K2 K3;
#X obj 19 198 route s;
#X obj 58 218 analog/parse;
#X obj 433 283 r LEDROUGE;
#X msg 455 328 R;
#X text 481 329 reset I2C;
#X obj 352 401 route 0 1 2;
#X obj 352 462 s POTSELECT;
#X obj 373 442 s POTFX;
#X obj 394 422 s POTVOL;
#X obj 168 258 route 0 1 2;
#X obj 168 237 spigot;
#X floatatom 168 293 5 0 0 0 - - -;
#X floatatom 206 292 5 0 0 0 - - -;
#X floatatom 244 292 5 0 0 0 - - -;
#X obj 201 215 tgl 15 0 empty empty empty 17 7 0 10 -262144 -1 -1 0
1;
#X obj 58 238 unpack f f;
#X obj 58 281 pack f f, f 10;
#X obj 456 367 tgl 15 0 empty empty empty 17 7 0 10 -262144 -1 -1 0
1;
#X msg 433 307 S\$1 \, L\$1;
#X obj 58 302 route 0 1 2;
#X obj 115 259 / 8192;
#X text 209 74 I2C1: K5:SCK K7:SDA;
#X obj 19 419 route 0 1 2;
#X obj 11 514 tgl 15 0 empty empty empty 17 7 0 10 -262144 -1 -1 0
1;
#X obj 62 504 tgl 15 0 empty empty empty 17 7 0 10 -262144 -1 -1 0
1;
#X obj 153 487 tgl 15 0 empty empty empty 17 7 0 10 -262144 -1 -1 0
1;
#X obj 19 177 fruit/receive BOUILLOIRE;
#X obj 19 485 s BOUILLOIRE_BOUTON;
#X obj 304 337 fruit/send2 BOUILLOIRE;
#X connect 2 0 24 0;
#X connect 2 1 3 0;
#X connect 3 0 17 0;
#X connect 4 0 20 0;
#X connect 5 0 30 1;
#X connect 7 0 8 0;
#X connect 7 1 9 0;
#X connect 7 2 10 0;
#X connect 11 0 13 0;
#X connect 11 1 14 0;
#X connect 11 2 15 0;
#X connect 12 0 11 0;
#X connect 16 0 12 1;
#X connect 17 0 18 0;
#X connect 17 1 22 0;
#X connect 18 0 21 0;
#X connect 18 0 12 0;
#X connect 20 0 30 1;
#X connect 22 0 18 1;
#X connect 24 0 25 0;
#X connect 24 0 29 0;
#X connect 24 1 26 0;
#X connect 24 2 27 0;
#X connect 28 0 2 0;
#X restore 285 430 pd Bouilloire;
#X obj 25 412 fruit/fruit 1 BOUILLOIRE 15 fwBouilloire;
