#N canvas 894 243 450 300 12;
#X declare -path effects -path rhythmic -path moonlib;
#X declare -path AutoPreset -lib creb;
#X declare -path iemlib;
#X declare -stdpath motex -path motex -lib motex -path ggee -lib ggee
-path moonlib -path AutoPreset;
#X declare -path ../domoTools/gammabs;
#X declare -path ../domoTools/domonet;
#X declare -path ../domoTools/notebank;
#X declare -path ../domoTools/effects;
#X declare -path ../domoTools/rhythmic;
#X declare -path ../domoTools/song;
#X obj 151 38 TUPPER 3;
#X obj 150 63 TUPPER 4;
#N canvas 408 268 450 300 declare 0;
#X obj 21 36 declare -path effects -path rhythmic -path moonlib;
#X obj 21 57 declare -path AutoPreset -lib creb;
#X obj 117 85 declare -path iemlib;
#X obj 32 122 declare -stdpath motex -path motex -lib motex -path ggee
-lib ggee -path moonlib -path AutoPreset;
#X obj 31 159 declare -path ../domoTools/gammabs;
#X obj 30 181 declare -path ../domoTools/domonet;
#X obj 29 203 declare -path ../domoTools/notebank;
#X obj 33 225 declare -path ../domoTools/effects;
#X obj 36 249 declare -path ../domoTools/rhythmic;
#X obj 35 271 declare -path ../domoTools/song;
#X restore 32 24 pd declare;
#X obj 31 47 loadbang;
#X msg 31 69 \; pd dsp 1;
#X obj 224 120 catch~ master;
#X obj 224 145 dac~;
#X obj 144 202 r TUPPER3_LED;
#X msg 144 227 TUPPER3_LED \$1;
#X obj 144 252 stdout;
#X obj 274 199 r TUPPER4_LED;
#X msg 274 224 TUPPER4_LED \$1;
#X obj 290 41 v /GAMME;
#X connect 3 0 4 0;
#X connect 5 0 6 0;
#X connect 7 0 8 0;
#X connect 8 0 9 0;
#X connect 10 0 11 0;
#X connect 11 0 9 0;
