#N canvas 481 99 677 669 10;
#X declare -path AutoPreset;
#X declare -path effects -path rhythmic -path moonlib;
#X text 99 10 accéléromètre rythme;
#X obj 21 57 declare -path AutoPreset;
#X obj 19 125 bng 15 250 50 0 empty empty load 17 7 0 10 -4034 -1 -1
;
#X obj 292 125 bng 15 250 50 0 empty empty save 17 7 0 10 -258113 -1
-1;
#X obj 19 104 loadbang;
#X obj 353 69 r CLOCK;
#X floatatom 367 153 5 0 0 0 - - -;
#X obj 478 114 pack 4 4;
#X obj 496 92 t b f;
#X obj 478 135 unpack f;
#X msg 467 66 8;
#X msg 385 111 nd \$1 \$2;
#X msg 438 66 6;
#X msg 539 64 2;
#X msg 569 64 3;
#X msg 599 64 4;
#X msg 511 64 1;
#X msg 408 66 4;
#X obj 353 223 sel 1;
#X obj 353 176 spigot;
#X obj 398 175 tgl 15 0 empty empty empty 17 7 0 10 -4034 -1 -1 1 1
;
#X obj 390 224 bng 15 80 50 0 empty empty empty 17 7 0 10 -262144 -1
-1;
#X obj 23 195 hsl 128 15 0 1 0 0 empty empty empty -2 -8 0 10 -262144
-1 -1 0 1;
#X text 415 49 nb_steps;
#X text 509 48 clock_divide;
#X obj 21 36 declare -path effects -path rhythmic -path moonlib;
#X obj 353 459 apflang RHYTHM-A fl1;
#X obj 415 522 apecho RHYTHM-A echo1;
#X obj 423 600 aprev RHYTHM-A r1;
#X obj 353 245 rhythmicInstrumentExample RHYTHM-A inst1;
#X obj 478 156 s RYTHM-rhythm1-nbsteps;
#X obj 20 215 MORPHgroup RHYTHM A;
#X obj 18 171 rhythmicPatterns RHYTHM rhythm1;
#X obj 19 83 apmaster RHYTHM;
#X obj 353 130 ndmetro 8 4;
#X msg 552 199 1;
#X obj 353 199 patternRead RHYTHM-rhythm1 1;
#X msg 613 208 3;
#X obj 353 690 throw~ master;
#X obj 19 145 apmasterfile RHYTHM SETTINGS/RHYTHM.txt;
#X msg 583 198 2;
#X connect 2 0 39 0;
#X connect 3 0 39 1;
#X connect 4 0 2 0;
#X connect 5 0 34 0;
#X connect 7 0 9 0;
#X connect 7 0 11 0;
#X connect 8 0 7 0;
#X connect 8 1 7 1;
#X connect 9 0 30 0;
#X connect 10 0 7 0;
#X connect 11 0 34 0;
#X connect 12 0 7 0;
#X connect 13 0 8 0;
#X connect 14 0 8 0;
#X connect 15 0 8 0;
#X connect 16 0 8 0;
#X connect 17 0 7 0;
#X connect 18 0 21 0;
#X connect 18 0 29 0;
#X connect 19 0 36 0;
#X connect 20 0 19 1;
#X connect 22 0 31 0;
#X connect 26 0 27 0;
#X connect 26 0 28 0;
#X connect 26 0 38 0;
#X connect 27 0 28 0;
#X connect 27 0 38 0;
#X connect 28 0 38 0;
#X connect 29 0 26 0;
#X connect 34 0 6 0;
#X connect 34 0 19 0;
#X connect 35 0 36 1;
#X connect 36 0 18 0;
#X connect 37 0 36 1;
#X connect 40 0 36 1;
