#N canvas 314 79 777 664 10;
#X declare -path effects -path rhythmic -path moonlib;
#X declare -path AutoPreset -lib creb;
#X declare -path iemlib;
#X declare -stdpath motex -path motex -lib motex -path ggee -lib ggee
-path moonlib -path AutoPreset;
#X declare -path ../domoTools/gammabs;
#X declare -path ../domoTools/domonet;
#X declare -path ../domoTools/notebank;
#X declare -path ../domoTools/effects;
#X declare -path ../domoTools/rhythmic;
#X declare -path ../domoTools/song;
#X text 99 10 accéléromètre rythme;
#X obj 19 125 bng 15 250 50 0 empty empty load 17 7 0 10 -4034 -1 -1
;
#X obj 238 122 bng 15 250 50 0 empty empty save 17 7 0 10 -258113 -1
-1;
#X obj 19 104 loadbang;
#X obj 24 283 hsl 128 15 0 1 0 0 empty empty empty -2 -8 0 10 -262144
-1 -1 0 1;
#X obj 24 543 hsl 128 15 0 1 0 0 empty empty empty -2 -8 0 10 -262144
-1 -1 0 1;
#X obj 20 521 spigot 1;
#X obj 19 83 apmaster PHARE;
#X obj 19 145 apmasterfile PHARE SETTINGS/PHARE.txt;
#X obj 21 308 MORPHgroup PHARE A;
#X obj 127 404 r PHARE_FX;
#X obj 350 296 ssaw~ 100;
#X obj 351 344 bob~, f 22;
#X obj 21 563 MORPHgroup PHARE FX;
#X obj 352 415 apflang PHARE-FX fl1;
#X obj 414 478 apecho PHARE-FX echo1;
#X obj 422 545 aprev PHARE-FX r1;
#X obj 352 618 mull~ 0 20, f 14;
#X obj 545 571 r PHARE_VOLUME;
#X obj 545 592 pow 2;
#X obj 525 629 hsl 128 15 0 1 0 0 empty empty empty -2 -8 0 10 -262144
-1 -1 0 1;
#X obj 559 152 r PHARE_BOUTON;
#X obj 53 434 r PHARE_SEL2;
#X obj 20 412 r PHARE_SEL1;
#X obj 20 433 * 2;
#X obj 20 454 +;
#X obj 53 455 t b f;
#X obj 20 475 / 3;
#X obj 559 173 sel 0 1;
#X msg 559 194 stop;
#X msg 595 193 start;
#X obj 559 215 t a;
#X obj 351 365 *~, f 30;
#X obj 424 302 *~;
#X obj 351 246 +~;
#X obj 351 20 r PHARE_ASSIETTE;
#X obj 351 41 unpack f f;
#X obj 351 68 + 1;
#X obj 351 89 / 2;
#X obj 412 64 + 1;
#X obj 412 85 / 2;
#X obj 351 152 gammeRound /GAMME 3;
#X obj 351 196 line~;
#X obj 522 120 tgl 15 0 empty empty empty 17 7 0 10 -262144 -1 -1 0
1;
#X obj 481 58 hsl 128 15 0 1 0 0 empty empty empty -2 -8 0 10 -262144
-1 -1 0 1;
#X floatatom 257 244 5 0 0 0 - - -;
#X obj 480 323 sig~ 2;
#X floatatom 421 237 5 0 0 0 - - -;
#X obj 582 286 eadsr~ 20 300 0.3 100;
#X obj 559 328 eadsr~ 10 20 0.3 100;
#X msg 464 221 0.25;
#X obj 688 224 noise~;
#X obj 642 223 *~;
#X obj 643 201 eadsr~ 10 20 0.1 10;
#X msg 351 175 \$1 20;
#X obj 351 131 + 15;
#X obj 20 500 songParam SONGS PHARE_FX 0.1;
#X obj 152 442 hradio 15 1 0 4 empty empty empty 0 -8 0 10 -262144
-1 -1 2;
#X obj 576 412 apdisto PHARE-FX disto1;
#X obj 163 208 *~ 6;
#X obj 163 229 osc~;
#X obj 163 250 *~;
#X obj 202 207 *~ 0.5;
#X obj 167 166 hsl 128 15 0 1 0 0 empty empty empty -2 -8 0 10 -262144
-1 -1 0 1;
#X obj 164 186 f;
#X obj 350 222 mtof~;
#X obj 41 389 tgl 15 0 empty empty empty 17 7 0 10 -262144 -1 -1 0
1;
#X obj 82 391 tgl 15 0 empty empty empty 17 7 0 10 -262144 -1 -1 0
1;
#X obj 388 267 *~ 10;
#X obj 642 244 *~ 0.15;
#X obj 425 280 ear~ 400 100;
#X obj 95 521 tgl 15 0 empty empty empty 17 7 0 10 -262144 -1 -1 0
1;
#X obj 516 173 tgl 15 0 empty empty empty 17 7 0 10 -262144 -1 -1 0
1;
#X floatatom 641 606 5 0 0 0 - - -;
#X obj 352 393 *~ 12;
#X obj 351 319 hip~ 20;
#X obj 351 639 hip~ 20;
#X obj 299 281 osc~ 100;
#X obj 354 109 * 30;
#X obj 24 195 tgl 15 0 empty empty empty 17 7 0 10 -262144 -1 -1 1
1;
#X obj 24 215 switch~;
#N canvas 408 268 450 300 declare 0;
#X obj 21 36 declare -path effects -path rhythmic -path moonlib;
#X obj 21 57 declare -path AutoPreset -lib creb;
#X obj 117 85 declare -path iemlib;
#X obj 32 122 declare -stdpath motex -path motex -lib motex -path ggee
-lib ggee -path moonlib -path AutoPreset;
#X obj 31 159 declare -path ../domoTools/gammabs;
#X obj 30 181 declare -path ../domoTools/domonet;
#X obj 29 203 declare -path ../domoTools/notebank;
#X obj 33 225 declare -path ../domoTools/effects;
#X obj 36 249 declare -path ../domoTools/rhythmic;
#X obj 35 271 declare -path ../domoTools/song;
#X restore 240 8 pd declare;
#X obj 352 661 dac~;
#X floatatom 290 81 5 0 0 0 - - -;
#X obj 24 176 loadbang;
#X obj 274 464 noise~;
#X obj 274 486 *~ 0.1;
#X obj 647 26 loadbang;
#X msg 647 48 \; pd dsp 1;
#X connect 1 0 8 0;
#X connect 2 0 8 1;
#X connect 3 0 1 0;
#X connect 4 0 9 0;
#X connect 5 0 13 0;
#X connect 6 0 5 0;
#X connect 11 0 75 0;
#X connect 12 0 32 0;
#X connect 14 0 15 0;
#X connect 14 0 16 0;
#X connect 14 0 58 0;
#X connect 14 0 17 0;
#X connect 15 0 16 0;
#X connect 15 0 17 0;
#X connect 17 0 76 0;
#X connect 18 0 19 0;
#X connect 18 0 73 0;
#X connect 19 0 17 1;
#X connect 20 0 19 0;
#X connect 21 0 28 0;
#X connect 21 0 72 0;
#X connect 22 0 26 0;
#X connect 23 0 24 0;
#X connect 24 0 25 0;
#X connect 25 0 27 0;
#X connect 26 0 25 0;
#X connect 26 1 25 1;
#X connect 27 0 56 0;
#X connect 28 0 29 0;
#X connect 28 1 30 0;
#X connect 28 1 50 0;
#X connect 29 0 31 0;
#X connect 30 0 31 0;
#X connect 31 0 49 0;
#X connect 31 0 53 0;
#X connect 31 0 70 0;
#X connect 32 0 74 0;
#X connect 33 0 12 1;
#X connect 34 0 11 0;
#X connect 34 0 68 0;
#X connect 34 0 77 0;
#X connect 35 0 36 0;
#X connect 36 0 37 0;
#X connect 36 1 39 0;
#X connect 37 0 38 0;
#X connect 38 0 78 0;
#X connect 39 0 40 0;
#X connect 40 0 64 0;
#X connect 41 0 54 0;
#X connect 42 0 65 0;
#X connect 43 0 28 0;
#X connect 44 0 78 0;
#X connect 46 0 12 2;
#X connect 47 0 68 1;
#X connect 49 0 32 1;
#X connect 50 0 11 1;
#X connect 51 0 52 1;
#X connect 52 0 69 0;
#X connect 53 0 52 0;
#X connect 54 0 42 0;
#X connect 55 0 41 0;
#X connect 56 0 6 0;
#X connect 57 0 27 0;
#X connect 58 0 15 0;
#X connect 58 0 17 0;
#X connect 59 0 60 0;
#X connect 60 0 61 0;
#X connect 61 0 65 0;
#X connect 62 0 61 1;
#X connect 63 0 64 0;
#X connect 64 0 59 0;
#X connect 64 0 62 0;
#X connect 65 0 34 0;
#X connect 66 0 24 0;
#X connect 67 0 26 0;
#X connect 68 0 33 1;
#X connect 69 0 32 0;
#X connect 70 0 33 0;
#X connect 71 0 6 1;
#X connect 74 0 14 0;
#X connect 75 0 12 0;
#X connect 76 0 82 0;
#X connect 77 0 75 0;
#X connect 78 0 55 0;
#X connect 79 0 80 0;
#X connect 84 0 79 0;
#X connect 85 0 86 0;
#X connect 87 0 88 0;
