#N canvas 979 56 819 805 10;
#X declare -path AutoPreset;
#X declare -path effects -path rhythmic -path moonlib -path iemlib -path zexy -lib zexy;
#X text 99 10 accéléromètre rythme;
#X obj 21 63 declare -path AutoPreset;
#X obj 19 125 bng 15 250 50 0 empty empty load 17 7 0 10 #00fc04 #000000 #000000;
#X obj 292 125 bng 15 250 50 0 empty empty save 17 7 0 10 #fc0400 #000000 #000000;
#X obj 19 104 loadbang;
#X obj 353 69 r CLOCK;
#X floatatom 367 153 5 0 0 0 - - - 0;
#X obj 496 92 t b f;
#X obj 478 135 unpack f;
#X msg 467 66 8;
#X msg 385 111 nd \$1 \$2;
#X msg 438 66 6;
#X msg 539 64 2;
#X msg 569 64 3;
#X msg 599 64 4;
#X msg 511 64 1;
#X msg 408 66 4;
#X obj 353 223 sel 1;
#X obj 353 176 spigot;
#X obj 398 175 tgl 15 0 empty empty empty 17 7 0 10 #00fc04 #000000 #000000 0 1;
#X obj 390 224 bng 15 80 50 0 empty empty empty 17 7 0 10 #fcfcfc #000000 #000000;
#X obj 23 195 hsl 128 15 0 1 0 0 empty empty empty -2 -8 0 10 #fcfcfc #000000 #000000 0 1;
#X text 415 49 nb_steps;
#X text 509 48 clock_divide;
#X obj 353 130 ndmetro 8 4;
#X msg 552 199 1;
#X msg 613 208 3;
#X msg 583 198 2;
#X obj 20 569 hsl 128 15 0 1 0 0 empty empty empty -2 -8 0 10 #fcfcfc #000000 #000000 0 1;
#X obj 17 595 MORPHgroup TUPPER\$1 FX;
#X obj 19 254 MORPHgroup TUPPER\$1 A;
#X obj 17 171 rhythmicPatterns TUPPER\$1 rhythm1;
#X obj 19 145 apmasterfile TUPPER\$1 SETTINGS/TUPPER\$1.txt;
#X obj 19 83 apmaster TUPPER\$1;
#X obj 353 199 patternRead TUPPER\$1-rhythm1 1;
#X obj 353 459 apflang TUPPER\$1-FX fl1;
#X obj 415 522 apecho TUPPER\$1-FX echo1;
#X obj 423 600 aprev TUPPER\$1-FX r1;
#X obj 17 333 r TUPPER\$1_ASSIETTE;
#X obj 353 245 rhythmicInstrument TUPPER\$1-A inst1;
#X obj 17 438 songParam SONGS TUPPER\$1_X 0.1;
#X obj 353 690 mull~ 0 10;
#X obj 446 671 r TUPPER\$1_VOLUME;
#X obj 17 356 unpack f f;
#X obj 568 5 r TUPPER\$1_FX;
#X obj 446 692 pow 2;
#X text 246 809 bas;
#X obj 352 717 throw~ master;
#X obj 74 397 + 1;
#X obj 74 418 / 2;
#X obj 568 27 songParam SONGS TUPPER\$1_FX 0.1;
#X obj 17 548 spigot 1;
#X obj 215 323 r TUPPER\$1_BOUTON;
#X obj 188 319 tgl 15 0 empty empty empty 17 7 0 10 #fcfcfc #000000 #000000 0 1;
#X obj 187 354 tgl 15 0 empty empty empty 17 7 0 10 #fcfcfc #000000 #000000 0 1;
#X obj 279 376 tgl 15 0 empty empty empty 17 7 0 10 #fcfcfc #000000 #000000 0 1;
#X obj 226 436 r LEDROUGE;
#X obj 236 575 s TUPPER\$1_LED;
#X obj 236 531 change;
#X obj 478 114 pack 8 8;
#N canvas 1 79 450 300 vitesse 0;
#X obj 37 37 inlet;
#X obj 37 121 i;
#X obj 37 142 change;
#X obj 37 163 sel 0 1 2 3 4, f 40;
#X msg 37 184 1;
#X msg 85 184 2;
#X msg 128 187 4;
#X msg 176 187 8;
#X msg 236 199 16;
#X obj 37 221 outlet;
#X obj 37 100 * 3.5;
#X msg 285 193 32;
#X connect 0 0 10 0;
#X connect 1 0 2 0;
#X connect 2 0 3 0;
#X connect 3 0 4 0;
#X connect 3 1 5 0;
#X connect 3 2 6 0;
#X connect 3 3 7 0;
#X connect 4 0 9 0;
#X connect 5 0 9 0;
#X connect 6 0 9 0;
#X connect 7 0 9 0;
#X connect 8 0 9 0;
#X connect 10 0 1 0;
#X connect 11 0 9 0;
#X restore 496 28 pd vitesse;
#X obj 558 101 r TUPPER\$1_SELECT;
#X obj 654 197 i;
#X obj 654 218 change;
#X obj 654 176 * 7.5;
#X obj 654 239 + 1;
#X obj 478 156 s TUPPER\$1-rhythm1-nbsteps;
#X obj 620 275 nbx 1 50 -1e+37 1e+37 0 0 empty empty pattern 0 65 0 30 #00fc04 #000000 #000000 0 256;
#X obj 509 698 hsl 128 15 0 1 0 0 empty empty empty -2 -8 0 10 #fcfcfc #000000 #000000 0 1;
#X msg 20 214 \$1 20;
#X obj 20 235 line;
#X obj 74 377 songParam SONGS TUPPER\$1_Y 0.1;
#X msg 634 69 8;
#X msg 609 243 8;
#X obj 599 405 hradio 15 1 0 8 empty empty empty 0 -8 0 10 #fcfcfc #000000 #000000 0;
#X obj 599 425 + 1;
#X obj 279 398 t b f;
#X obj 236 509 +;
#X obj 236 488 *;
#X obj 279 494 * 323;
#X obj 278 467 * 700;
#X obj 182 219 tgl 15 0 empty empty empty 17 7 0 10 #fcfcfc #000000 #000000 0 1;
#X obj 179 82 unpack f f;
#X obj 256 79 t b f;
#X obj 236 103 /;
#X obj 236 123 * 0.5;
#X obj 265 208 del 100;
#X msg 265 229 0;
#X msg 295 229 1;
#X obj 558 123 songParam SONGS TUPPER\$1_SELECT 0.1;
#X floatatom 148 341 5 0 0 0 - - - 0;
#X obj 17 459 + 1;
#X obj 17 480 / 2;
#X obj 21 32 declare -path effects -path rhythmic -path moonlib -path iemlib -path zexy -lib zexy;
#X obj 28 682 r TUPPER\$1_SELBOUTON;
#X obj 28 705 tgl 18 0 empty empty empty 0 -9 0 10 #fcfcfc #000000 #000000 0 1;
#X obj 159 682 loadbang;
#X msg 159 705 0;
#X obj 28 728 == 0;
#X obj 28 751 switch~;
#X obj 82 752 s \$0-on;
#X obj 236 553 spigot;
#X obj 281 553 r \$0-on;
#X obj 215 344 rhythmicButton \$0;
#X obj 726 100 r \$0-on;
#X obj 732 3 r \$0-on;
#X connect 2 0 32 0;
#X connect 3 0 32 1;
#X connect 4 0 2 0;
#X connect 5 0 24 0;
#X connect 5 0 82 0;
#X connect 7 0 59 0;
#X connect 7 1 59 1;
#X connect 7 1 83 0;
#X connect 8 0 66 0;
#X connect 9 0 59 0;
#X connect 10 0 24 0;
#X connect 11 0 59 0;
#X connect 12 0 7 0;
#X connect 13 0 7 0;
#X connect 14 0 7 0;
#X connect 15 0 7 0;
#X connect 16 0 59 0;
#X connect 17 0 20 0;
#X connect 17 0 39 0;
#X connect 17 0 86 0;
#X connect 17 0 88 0;
#X connect 18 0 34 0;
#X connect 19 0 18 1;
#X connect 21 0 69 0;
#X connect 24 0 6 0;
#X connect 24 0 18 0;
#X connect 25 0 34 1;
#X connect 26 0 34 1;
#X connect 27 0 34 1;
#X connect 28 0 29 0;
#X connect 34 0 17 0;
#X connect 35 0 36 0;
#X connect 35 0 37 0;
#X connect 35 0 41 0;
#X connect 36 0 37 0;
#X connect 36 0 41 0;
#X connect 37 0 41 0;
#X connect 38 0 43 0;
#X connect 39 0 35 0;
#X connect 40 0 91 0;
#X connect 41 0 47 0;
#X connect 42 0 45 0;
#X connect 43 0 40 0;
#X connect 43 1 71 0;
#X connect 44 0 50 0;
#X connect 45 0 41 1;
#X connect 48 0 49 0;
#X connect 49 0 21 0;
#X connect 50 0 60 0;
#X connect 51 0 28 0;
#X connect 52 0 103 0;
#X connect 53 0 103 0;
#X connect 55 0 19 0;
#X connect 55 0 76 0;
#X connect 58 0 101 0;
#X connect 59 0 8 0;
#X connect 59 0 10 0;
#X connect 60 0 7 0;
#X connect 61 0 89 0;
#X connect 62 0 63 0;
#X connect 63 0 65 0;
#X connect 64 0 62 0;
#X connect 65 0 34 1;
#X connect 65 0 67 0;
#X connect 68 0 45 0;
#X connect 69 0 70 0;
#X connect 70 0 30 0;
#X connect 71 0 48 0;
#X connect 72 0 7 0;
#X connect 73 0 34 1;
#X connect 74 0 75 0;
#X connect 75 0 34 1;
#X connect 75 0 67 0;
#X connect 76 0 78 0;
#X connect 76 1 79 0;
#X connect 76 1 80 0;
#X connect 77 0 58 0;
#X connect 78 0 77 0;
#X connect 79 0 77 1;
#X connect 80 0 78 1;
#X connect 82 1 84 0;
#X connect 83 0 84 0;
#X connect 83 1 84 1;
#X connect 84 0 85 0;
#X connect 85 0 86 1;
#X connect 86 0 87 0;
#X connect 87 0 78 0;
#X connect 88 0 78 0;
#X connect 89 0 64 0;
#X connect 91 0 92 0;
#X connect 92 0 51 0;
#X connect 94 0 95 0;
#X connect 95 0 98 0;
#X connect 96 0 97 0;
#X connect 97 0 95 0;
#X connect 98 0 99 0;
#X connect 98 0 100 0;
#X connect 101 0 57 0;
#X connect 102 0 101 1;
#X connect 103 0 54 0;
#X connect 103 0 40 1;
#X connect 103 0 71 1;
#X connect 103 1 55 0;
#X connect 104 0 89 1;
#X connect 105 0 50 1;
