#N canvas 635 105 635 513 10;
#N canvas 602 90 501 630 AXL 0;
#X msg 299 89 R;
#X text 325 88 reset i2c/axl;
#N canvas 472 92 495 705 attacks 0;
#X obj 20 13 inlet;
#X obj 20 57 unpack f f f;
#X obj 20 34 t a a, f 26;
#X obj 20 78 abs;
#X obj 54 78 abs;
#X obj 89 79 abs;
#X obj 20 119 moses 0, f 14;
#X obj 101 158 t b f, f 6;
#X obj 101 179 list, f 13;
#X obj 101 200 t b l, f 8;
#X obj 128 272 list, f 8;
#X obj 101 242 t b b;
#X obj 185 328 unpack f f f;
#X obj 185 349 abs;
#X obj 219 349 abs;
#X obj 254 349 abs;
#X obj 185 370 max;
#X obj 219 369 max;
#X msg 218 215 3;
#X obj 303 348 unpack f f f;
#X obj 303 369 abs;
#X obj 337 369 abs;
#X obj 372 369 abs;
#X obj 288 432 sel;
#X obj 322 431 sel;
#X obj 357 433 sel;
#X msg 288 453 0;
#X msg 322 452 1;
#X msg 357 454 2;
#X obj 185 391 t b f;
#X obj 128 293 t a a a, f 19;
#X obj 128 542 list split;
#X obj 185 494 f;
#X obj 185 515 t f f, f 10;
#X obj 156 566 list split 1;
#X obj 156 611 pack f f, f 15;
#X msg 156 632 \$2 \$1;
#X obj 156 654 outlet;
#X obj 156 587 / 16;
#X obj 101 221 del 30;
#X connect 0 0 2 0;
#X connect 1 0 3 0;
#X connect 1 1 4 0;
#X connect 1 2 5 0;
#X connect 2 0 1 0;
#X connect 2 1 8 1;
#X connect 3 0 6 0;
#X connect 4 0 6 0;
#X connect 5 0 6 0;
#X connect 6 1 7 0;
#X connect 7 0 8 0;
#X connect 7 1 6 1;
#X connect 8 0 9 0;
#X connect 9 0 39 0;
#X connect 9 1 10 1;
#X connect 10 0 30 0;
#X connect 11 0 18 0;
#X connect 11 1 10 0;
#X connect 12 0 13 0;
#X connect 12 1 14 0;
#X connect 12 2 15 0;
#X connect 13 0 16 0;
#X connect 14 0 17 0;
#X connect 15 0 17 1;
#X connect 16 0 29 0;
#X connect 17 0 16 1;
#X connect 18 0 6 1;
#X connect 19 0 20 0;
#X connect 19 1 21 0;
#X connect 19 2 22 0;
#X connect 20 0 23 1;
#X connect 21 0 24 1;
#X connect 22 0 25 1;
#X connect 23 0 26 0;
#X connect 24 0 27 0;
#X connect 25 0 28 0;
#X connect 26 0 32 1;
#X connect 27 0 32 1;
#X connect 28 0 32 1;
#X connect 29 0 32 0;
#X connect 29 1 23 0;
#X connect 29 1 25 0;
#X connect 29 1 24 0;
#X connect 30 0 31 0;
#X connect 30 1 12 0;
#X connect 30 2 19 0;
#X connect 31 1 34 0;
#X connect 32 0 33 0;
#X connect 33 0 31 1;
#X connect 33 1 35 1;
#X connect 34 0 38 0;
#X connect 35 0 36 0;
#X connect 36 0 37 0;
#X connect 38 0 35 0;
#X connect 39 0 11 0;
#X restore 23 148 pd attacks;
#X obj 145 255 unpack f f f;
#X obj 179 276 t f f;
#X obj 179 297 *, f 5;
#X obj 218 276 t f f;
#X obj 218 297 *, f 5;
#X obj 179 318 +, f 7;
#X obj 179 339 sqrt;
#X obj 145 367 atan2, f 6;
#X obj 22 279 unpack f f f;
#X obj 56 300 t f f;
#X obj 56 321 *, f 5;
#X obj 95 300 t f f;
#X obj 95 321 *, f 5;
#X obj 56 342 +, f 7;
#X obj 56 363 sqrt;
#X obj 22 391 atan2, f 6;
#X obj 145 388 clip -0.7 0.7;
#X obj 22 412 clip -0.7 0.7;
#X obj 145 412 / 0.7;
#X obj 22 435 / -0.7;
#X obj 22 228 t a a;
#X obj 22 456 pack f f, f 21;
#X floatatom 158 486 5 0 0 0 - - -;
#X obj 293 49 metro 1000;
#X obj 307 21 tgl 15 0 empty empty empty 17 7 0 10 -262144 -1 -1 0
1;
#X obj 17 20 fruit/receive TUPPER\$1;
#X obj 165 63 s AXL_SEPARATION;
#X obj 165 20 loadbang;
#X msg 165 41 5;
#X obj 206 112 fruit/send TUPPER\$1;
#X obj 17 84 axlprocess axltupper-\$1;
#X obj 22 476 s TUPPER\$1_ASSIETTE;
#X obj 17 45 route 1;
#X obj 23 169 s TUPPER\$1_ASSIETTE_ATTACK;
#X obj 23 127 r AXLRAWaxltupper-\$1;
#X obj 22 207 r AXLSLOWaxltupper-\$1;
#X floatatom 85 536 5 0 0 0 - - -;
#X msg 22 255 \$2 \$1 \$3;
#X connect 0 0 32 1;
#X connect 2 0 36 0;
#X connect 3 0 10 0;
#X connect 3 1 4 0;
#X connect 3 2 6 0;
#X connect 4 0 5 0;
#X connect 4 1 5 1;
#X connect 5 0 8 0;
#X connect 6 0 7 0;
#X connect 6 1 7 1;
#X connect 7 0 8 1;
#X connect 8 0 9 0;
#X connect 9 0 10 1;
#X connect 10 0 19 0;
#X connect 11 0 18 0;
#X connect 11 1 12 0;
#X connect 11 2 14 0;
#X connect 12 0 13 0;
#X connect 12 1 13 1;
#X connect 13 0 16 0;
#X connect 14 0 15 0;
#X connect 14 1 15 1;
#X connect 15 0 16 1;
#X connect 16 0 17 0;
#X connect 17 0 18 1;
#X connect 18 0 20 0;
#X connect 19 0 21 0;
#X connect 20 0 22 0;
#X connect 21 0 24 1;
#X connect 22 0 24 0;
#X connect 23 0 40 0;
#X connect 23 1 3 0;
#X connect 24 0 34 0;
#X connect 26 0 0 0;
#X connect 27 0 26 0;
#X connect 28 0 35 0;
#X connect 30 0 31 0;
#X connect 31 0 29 0;
#X connect 35 0 33 0;
#X connect 37 0 2 0;
#X connect 38 0 23 0;
#X connect 40 0 11 0;
#X restore 18 94 pd AXL;
#X text 209 66 BoutonRouge: K11 / LED:K12(LED sur Vdd);
#X text 210 31 AXL: K5:SCK K7:SDA (I2C 1);
#X text 209 50 Pots: K1 K2 K3;
#X obj 18 155 route s;
#X obj 57 175 analog/parse;
#X obj 18 376 route 0;
#X msg 454 285 R;
#X text 480 286 reset I2C;
#X obj 86 318 route 0 1 2;
#X obj 167 215 route 0 1 2;
#X obj 167 194 spigot;
#X floatatom 167 250 5 0 0 3 select - -;
#X floatatom 205 249 5 0 0 3 fx - -;
#X floatatom 243 249 5 0 0 3 volume - -;
#X obj 200 172 tgl 15 0 empty empty empty 17 7 0 10 -262144 -1 -1 1
1;
#X obj 57 195 unpack f f;
#X obj 57 286 pack f f, f 10;
#X obj 455 324 tgl 15 0 empty empty empty 17 7 0 10 -262144 -1 -1 0
1;
#X msg 432 264 S\$1 \, L\$1;
#X obj 114 216 / 8192;
#X obj 18 130 fruit/receive TUPPER\$1;
#X obj 315 311 fruit/send2 TUPPER\$1;
#X obj 107 359 s TUPPER\$1_FX;
#X obj 86 379 s TUPPER\$1_SELECT;
#X obj 18 422 s TUPPER\$1_BOUTON;
#X obj 128 339 s TUPPER\$1_VOLUME;
#X obj 52 401 tgl 15 0 empty empty empty 17 7 0 10 -262144 -1 -1 1
1;
#X obj 432 240 r TUPPER\$1_LED;
#X connect 4 0 6 0;
#X connect 4 1 5 0;
#X connect 5 0 16 0;
#X connect 6 0 25 0;
#X connect 6 0 27 0;
#X connect 7 0 22 1;
#X connect 9 0 24 0;
#X connect 9 1 23 0;
#X connect 9 2 26 0;
#X connect 10 0 12 0;
#X connect 10 1 13 0;
#X connect 10 2 14 0;
#X connect 11 0 10 0;
#X connect 15 0 11 1;
#X connect 16 0 17 0;
#X connect 16 1 20 0;
#X connect 17 0 9 0;
#X connect 17 0 11 0;
#X connect 19 0 22 1;
#X connect 20 0 17 1;
#X connect 21 0 4 0;
#X connect 28 0 19 0;
#X connect 28 0 18 0;
