#N canvas 834 146 940 886 10;
#X declare -path Fraise -stdpath Fraise;
#X obj 22 207 fruit/receive fruit1;
#X msg 374 159 L\$1;
#X obj 374 136 tgl 15 0 empty empty set_LED 18 7 0 10 -4034 -1 -1 0
1;
#X obj 21 38 pied/pied 0 41424;
#X obj 21 16 declare -path Fraise -stdpath Fraise;
#X obj 43 280 * 256;
#X obj 22 302 +;
#X obj 85 276 * 256;
#X obj 65 302 +;
#X obj 127 276 * 256;
#X obj 106 301 +;
#X obj 22 326 change;
#X obj 65 328 change;
#X obj 106 328 change;
#X msg 396 218 I0;
#X obj 364 82 metro 150;
#X obj 364 55 tgl 15 0 empty empty empty 17 7 0 10 -262144 -1 -1 0
1;
#X floatatom 80 434 5 0 0 0 - - -;
#X obj 25 512 hsl 128 15 -1 1 0 0 empty empty empty -2 -8 0 10 -262144
-1 -1 6328 1;
#X obj 22 394 + 32768;
#X obj 22 416 mod 65536;
#X obj 22 438 - 32768;
#X obj 22 460 / 32768;
#X obj 169 514 hsl 128 15 -1 1 0 0 empty empty empty -2 -8 0 10 -262144
-1 -1 6328 1;
#X obj 166 396 + 32768;
#X obj 166 418 mod 65536;
#X obj 166 440 - 32768;
#X obj 166 462 / 32768;
#X obj 315 511 hsl 128 15 -1 1 0 0 empty empty empty -2 -8 0 10 -262144
-1 -1 6325 1;
#X obj 312 393 + 32768;
#X obj 312 415 mod 65536;
#X obj 312 437 - 32768;
#X obj 312 459 / 32768;
#X floatatom 228 496 5 0 0 0 - - -;
#X floatatom 375 485 5 0 0 0 - - -;
#X floatatom 380 450 5 0 0 0 - - -;
#X obj 312 481 * 130;
#X floatatom 249 453 5 0 0 0 - - -;
#X obj 166 484 * 116;
#X obj 22 482 * 116;
#X obj 22 255 unpack f f f f f f;
#X obj 478 278 * 256;
#X obj 457 300 +;
#X obj 520 274 * 256;
#X obj 500 300 +;
#X obj 562 274 * 256;
#X obj 541 299 +;
#X obj 500 326 change;
#X obj 541 326 change;
#X floatatom 515 432 5 0 0 0 - - -;
#X obj 460 510 hsl 128 15 -1 1 0 0 empty empty empty -2 -8 0 10 -262144
-1 -1 12169 1;
#X obj 457 392 + 32768;
#X obj 457 414 mod 65536;
#X obj 457 436 - 32768;
#X obj 457 458 / 32768;
#X obj 204 651 hsl 128 15 -1 1 0 0 empty empty empty -2 -8 0 10 -262144
-1 -1 6457 1;
#X obj 614 369 + 32768;
#X obj 614 391 mod 65536;
#X obj 614 413 - 32768;
#X obj 614 435 / 32768;
#X obj 750 509 hsl 128 15 -1 1 0 0 empty empty empty -2 -8 0 10 -262144
-1 -1 5839 1;
#X obj 747 391 + 32768;
#X obj 747 413 mod 65536;
#X obj 747 435 - 32768;
#X obj 747 457 / 32768;
#X floatatom 663 494 5 0 0 0 - - -;
#X floatatom 810 483 5 0 0 0 - - -;
#X obj 747 479 * 130;
#X floatatom 684 451 5 0 0 0 - - -;
#X obj 614 457 * 116;
#X obj 457 480 * 116;
#X obj 457 253 unpack f f f f f f;
#X obj 22 229 route 1 2;
#X floatatom 633 297 5 0 0 0 - - -;
#X obj 457 324 change;
#N canvas 245 129 455 238 schematic 1;
#X text 124 142 +5V---150--;
#X text 124 162 GND---330--;
#X text 186 147 |;
#X text 186 157 |;
#X text 142 170 |;
#X text 199 96 |;
#X text 249 119 |;
#X text 249 129 |;
#X text 199 136 |;
#X text 199 146 |;
#X text 199 117 |;
#X text 199 127 |;
#X text 249 70 |;
#X text 249 99 |;
#X text 249 109 |;
#X text 249 80 |;
#X text 249 89 |;
#X text 249 49 |;
#X text 188 151 ---------------3.43V;
#X text 143 175 -----------------------GND;
#X text 249 137 |;
#X text 249 147 |;
#X text 28 111 5V side;
#X text 330 99 ADXL345;
#X text 330 115 3.3V side;
#X text 103 44 K5(SCL)---220---------------SCL;
#X text 102 90 K7(SDA)---220-------SDA;
#X text 28 95 Versa;
#X text 243 60 2.2K;
#X text 192 108 2.2K;
#X restore 520 92 pd schematic;
#X obj 776 276 t b b;
#X obj 776 298 timer;
#X floatatom 776 320 5 0 0 0 - - -;
#X floatatom 831 319 5 0 0 0 - - -;
#X obj 831 297 mavg 30;
#X obj 19 141 fruit/fruit 0 fruit1 10 example1;
#X obj 269 185 fruit/send fruit1;
#X floatatom 595 319 5 0 0 0 - - -;
#X floatatom 224 323 5 0 0 0 - - -;
#X obj 289 629 print;
#X obj 289 608 spigot 0;
#X obj 317 572 tgl 15 0 empty empty empty 17 7 0 10 -262144 -1 -1 0
1;
#X obj 511 577 metro 10;
#X obj 511 598 t b b b, f 28;
#X obj 511 619 f;
#X obj 587 621 f;
#X obj 677 626 f;
#X obj 511 661 +;
#X floatatom 468 725 5 0 0 0 - - -;
#X floatatom 554 781 5 0 0 0 - - -;
#X obj 565 549 tgl 15 0 empty empty empty 17 7 0 10 -262144 -1 -1 1
1;
#X obj 537 662 * 0.97;
#X obj 509 641 * 0.03;
#X obj 586 665 +;
#X obj 612 666 * 0.97;
#X obj 584 645 * 0.03;
#X obj 678 670 +;
#X obj 704 671 * 0.97;
#X obj 676 650 * 0.03;
#X obj 605 715 atan2;
#X obj 644 766 moonlib/mknob 100 -1 -3.14 3.14 0 0 empty empty empty
-2 -6 0 8 -262144 -1 -1 74 1;
#X obj 779 731 pow 2;
#X obj 818 732 pow 2;
#X obj 779 752 +;
#X obj 779 773 sqrt;
#X obj 749 751 vsl 15 128 0 0.5 0 0 empty empty empty 0 -9 0 10 -262144
-1 -1 2556 1;
#X obj 608 539 t f f;
#X obj 553 731 -;
#X obj 439 801 hsl 128 15 -1 1 0 0 empty empty empty -2 -8 0 10 -262144
-1 -1 6341 1;
#X floatatom 789 555 5 0 0 0 - - -;
#X obj 787 597 / 100;
#X obj 787 618 * -1;
#X obj 787 639 + 1;
#X obj 788 576 clip 0 100;
#X obj 611 498 + 0.07;
#X obj 201 671 / 0.15;
#X obj 201 692 i;
#X obj 197 753 change;
#X floatatom 24 831 5 0 0 0 - - -;
#X obj 201 713 + 1;
#X obj 201 734 clip 0 2;
#X obj 256 854 hradio 30 1 0 3 empty empty empty 0 -8 0 10 -262144
-1 -1 1;
#X obj 201 776 sel 1, f 11;
#X msg 255 798 stop;
#X msg 201 818 1;
#X obj 201 797 del 250;
#X connect 0 0 72 0;
#X connect 0 0 86 0;
#X connect 1 0 82 1;
#X connect 2 0 1 0;
#X connect 5 0 6 1;
#X connect 6 0 11 0;
#X connect 7 0 8 1;
#X connect 8 0 12 0;
#X connect 9 0 10 1;
#X connect 10 0 13 0;
#X connect 11 0 19 0;
#X connect 12 0 24 0;
#X connect 13 0 29 0;
#X connect 13 0 84 0;
#X connect 14 0 82 1;
#X connect 15 0 2 0;
#X connect 16 0 15 0;
#X connect 19 0 20 0;
#X connect 20 0 21 0;
#X connect 21 0 22 0;
#X connect 22 0 39 0;
#X connect 24 0 25 0;
#X connect 25 0 26 0;
#X connect 26 0 27 0;
#X connect 27 0 38 0;
#X connect 29 0 30 0;
#X connect 30 0 31 0;
#X connect 31 0 32 0;
#X connect 32 0 36 0;
#X connect 35 0 36 1;
#X connect 36 0 28 0;
#X connect 36 0 34 0;
#X connect 37 0 38 1;
#X connect 38 0 23 0;
#X connect 38 0 33 0;
#X connect 39 0 18 0;
#X connect 40 0 6 0;
#X connect 40 1 5 0;
#X connect 40 2 8 0;
#X connect 40 3 7 0;
#X connect 40 4 10 0;
#X connect 40 5 9 0;
#X connect 41 0 42 1;
#X connect 42 0 74 0;
#X connect 43 0 44 1;
#X connect 44 0 47 0;
#X connect 45 0 46 1;
#X connect 46 0 48 0;
#X connect 47 0 56 0;
#X connect 48 0 61 0;
#X connect 51 0 52 0;
#X connect 52 0 53 0;
#X connect 53 0 54 0;
#X connect 54 0 70 0;
#X connect 55 0 121 0;
#X connect 56 0 57 0;
#X connect 57 0 58 0;
#X connect 58 0 59 0;
#X connect 59 0 69 0;
#X connect 61 0 62 0;
#X connect 62 0 63 0;
#X connect 63 0 64 0;
#X connect 64 0 67 0;
#X connect 67 0 92 1;
#X connect 68 0 69 1;
#X connect 69 0 120 0;
#X connect 70 0 90 1;
#X connect 71 0 42 0;
#X connect 71 1 41 0;
#X connect 71 2 44 0;
#X connect 71 3 43 0;
#X connect 71 4 46 0;
#X connect 71 5 45 0;
#X connect 72 0 40 0;
#X connect 72 1 71 0;
#X connect 74 0 51 0;
#X connect 76 0 77 0;
#X connect 76 1 77 1;
#X connect 77 0 78 0;
#X connect 78 0 80 0;
#X connect 80 0 79 0;
#X connect 86 0 85 0;
#X connect 87 0 86 1;
#X connect 88 0 89 0;
#X connect 89 0 90 0;
#X connect 89 1 91 0;
#X connect 89 2 92 0;
#X connect 90 0 98 0;
#X connect 91 0 101 0;
#X connect 92 0 104 0;
#X connect 93 0 97 0;
#X connect 96 0 88 0;
#X connect 97 0 93 1;
#X connect 98 0 93 0;
#X connect 99 0 100 0;
#X connect 99 0 55 0;
#X connect 99 0 105 0;
#X connect 99 0 107 0;
#X connect 99 0 113 0;
#X connect 100 0 99 1;
#X connect 101 0 99 0;
#X connect 102 0 103 0;
#X connect 102 0 105 1;
#X connect 102 0 108 0;
#X connect 103 0 102 1;
#X connect 104 0 102 0;
#X connect 107 0 109 0;
#X connect 108 0 109 1;
#X connect 109 0 110 0;
#X connect 110 0 111 0;
#X connect 112 0 91 1;
#X connect 112 1 113 1;
#X connect 115 0 119 0;
#X connect 116 0 117 0;
#X connect 116 0 101 1;
#X connect 117 0 118 0;
#X connect 118 0 100 1;
#X connect 119 0 116 0;
#X connect 120 0 112 0;
#X connect 121 0 122 0;
#X connect 122 0 125 0;
#X connect 123 0 128 0;
#X connect 125 0 126 0;
#X connect 126 0 123 0;
#X connect 128 0 131 0;
#X connect 128 1 129 0;
#X connect 128 1 127 0;
#X connect 129 0 131 0;
#X connect 130 0 127 0;
#X connect 131 0 130 0;
